<?xml version="1.0" standalone="no"?>
<!DOCTYPE svg PUBLIC "-//W3C//DTD SVG 1.1//EN" "http://www.w3.org/Graphics/SVG/1.1/DTD/svg11.dtd" >
<svg xmlns="http://www.w3.org/2000/svg">
<metadata>Generated by IcoMoon</metadata>
<defs>
<font id="sybilla" horiz-adv-x="1024">
<font-face units-per-em="1024" ascent="960" descent="-64" />
<missing-glyph horiz-adv-x="1024" />
<glyph unicode="&#x20;" horiz-adv-x="512" d="" />
<glyph unicode="&#xe600;" glyph-name="abotastrodrivealt" horiz-adv-x="1026" d="M845.297 3.888c-18.542 0-33.944-15.395-33.944-33.944s15.395-33.944 33.944-33.944c18.542 0 33.944 15.395 33.944 33.944s-15.395 33.944-33.944 33.944zM732.158 3.888c-18.542 0-33.944-15.395-33.944-33.944s15.395-33.944 33.944-33.944c18.542 0 33.944 15.395 33.944 33.944s-15.395 33.944-33.944 33.944zM619.016 3.888c-18.542 0-33.944-15.395-33.944-33.944s15.395-33.944 33.944-33.944c18.542 0 33.944 15.395 33.944 33.944s-15.395 33.944-33.944 33.944zM53.321 134.115v-33.944h791.974v33.944h-791.974zM53.321 173.712v-33.944h791.974v33.944h-791.974zM164.707 224.621l-113.138-11.314 1.768-33.944h791.954l1.768 33.944-114.020 11.314h-568.346zM166.474 298.162l-4.064-0.534-113.138-28.286 4.064-33.41h791.974l4.064 33.41-113.138 28.286-4.064 0.534h-565.696zM166.475 467.875l-10.258-3.36-113.138-84.854 10.258-30.58h791.974l10.258 30.58-113.138 84.854-4.952 1.588-2.476-15.73h-5.658l-2.83 17.504h-53.392l-4.245-9.55-5.48 1.588 0.174 0.881 0.708 7.072h-497.814zM825.509 584.719c-0.298-0.23-0.584-0.479-0.881-0.708l0.353-0.708 3.002-7.955h10.431l-12.193 8.843-0.708 0.534zM638.835 584.725l-0.708-0.534-12.193-8.843h10.431l3.002 7.955 0.353 0.708c-0.303 0.23-0.577 0.471-0.881 0.708zM166.481 778.979l-14.142-7.603-113.138-169.707 14.142-26.336h531.418l26.697 36.768c-0.235 0.303-0.479 0.577-0.708 0.881l-0.708-0.353-97.233-37.127-2.83 4.772 0.708 0.534 80.081 65.056 0.534 0.534c-0.142 0.348-0.211 0.719-0.353 1.062h-0.708l-103.613-10.784-1.588 5.48 95.813 42.784c-0.043 0.348-0.131 0.714-0.174 1.062l-0.881 0.174-102.731 16.438v5.658l103.613 16.612c0.043 0.353 0.131 0.708 0.174 1.062l-0.881 0.353-94.931 42.426 1.588 5.48 0.881-0.174 103.439-10.605c0.142 0.348 0.211 0.719 0.353 1.062l-0.534 0.534-17.139 13.97h-407.128zM732.197 960l-16.438-102.731c5.417 0.584 10.866 0.881 16.438 0.881s11.021-0.298 16.438-0.881l-16.438 102.731zM798.135 951.332l-42.426-94.931c10.959-1.699 21.583-4.754 31.648-8.663l10.784 103.593zM859.483 925.871l-65.585-80.79c10.078-4.469 19.671-9.996 28.452-16.438l37.127 97.233zM912.167 885.393l-84.321-60.987c8.608-6.931 16.408-14.731 23.332-23.332l60.987 84.321zM952.653 832.701l-97.233-37.127c6.442-8.792 11.971-18.393 16.438-28.452l80.79 65.585zM978.119 771.361l-103.593-10.784c3.911-10.064 6.955-20.69 8.663-31.648l94.931 42.426zM884.068 721.859c0.584-5.417 0.881-10.866 0.881-16.438s-0.298-11.021-0.881-16.438l102.731 16.438-102.731 16.438zM883.18 681.921c-1.699-10.959-4.754-21.583-8.663-31.648l103.593-10.784-94.931 42.426zM871.875 643.734c-4.469-10.078-9.996-19.671-16.438-28.452l97.233-37.127-80.79 65.585zM850.834 605.546l48.967-67.707-67.707 48.967c6.794 5.728 13.014 11.94 18.74 18.74zM820.966 578.146l29.526-77.785-52.324 64.524c7.987 3.766 15.619 8.24 22.799 13.261zM787.375 563.111c-10.064-3.911-20.69-6.955-31.648-8.663l42.426-94.931-10.784 103.593zM719.151 550.563c4.319-0.359 8.663-0.708 13.088-0.708 4.418 0 8.769 0.348 13.088 0.708l-13.088-81.496-13.088 81.496zM679.556 559.581c8.032-2.936 16.481-5.306 25.107-6.894l-33.59-75.488 8.482 82.383zM643.496 578.141c7.186-5.021 14.816-9.495 22.799-13.261l-52.324-64.524 29.526 77.785zM613.623 605.539c5.728-6.794 11.94-13.014 18.74-18.74l-67.707-48.967 48.967 67.707zM591.699 639.475c3.766-7.987 8.24-15.619 13.261-22.799l-77.785-29.526 64.524 52.324zM579.505 677.839c1.588-8.613 3.958-17.083 6.894-25.107l-82.383-8.482 75.488 33.59zM577.382 718.498c-0.359-4.319-0.708-8.663-0.708-13.088 0-4.418 0.348-8.769 0.708-13.088l-81.496 13.088 81.496 13.088zM504.015 766.582l82.383-8.482c-2.936-8.032-5.306-16.481-6.894-25.107l-75.488 33.59zM527.176 823.66l77.785-29.526c-5.021-7.186-9.495-14.816-13.261-22.799l-64.524 52.324zM564.655 872.987l67.707-48.967c-6.794-5.728-13.014-11.94-18.74-18.74l-48.967 67.707zM604.965 925.851l37.127-97.233c8.792 6.442 18.393 11.971 28.452 16.438l-65.585 80.79zM666.312 951.312l10.784-103.593c10.064 3.911 20.69 6.955 31.648 8.663l-42.426 94.931zM732.228 835.494c71.99 0 130.11-58.122 130.11-130.11s-58.122-130.11-130.11-130.11c-71.99 0-130.11 58.122-130.11 130.11s58.122 130.11 130.11 130.11z" />
<glyph unicode="&#xe601;" glyph-name="abotastrodrive" horiz-adv-x="1026" d="M680.216 675.354c42.558 0 76.917-34.359 76.917-76.917s-34.359-76.917-76.917-76.917c-42.558 0-76.917 34.359-76.917 76.917s34.359 76.917 76.917 76.917zM641.25 743.819l6.374-61.242c5.949 2.311 12.23 4.113 18.707 5.12l-25.082 56.119zM604.986 728.767l21.948-57.48c5.196 3.809 10.872 7.077 16.821 9.718l-38.772 47.759zM581.155 697.516l40.027-28.947c-4.016-3.388-7.692-7.060-11.079-11.079l-28.947 40.027zM559 668.357l45.982-17.453c-2.967-4.248-5.612-8.759-7.839-13.477l-38.144 30.933zM545.308 634.618l48.701-5.017c-1.736-4.749-3.137-9.744-4.077-14.842l-44.626 19.857zM588.68 606.193c-0.213-2.552-0.418-5.12-0.418-7.735 0-2.612 0.204-5.184 0.418-7.735l-48.176 7.735 48.176 7.735zM589.934 582.154c0.94-5.093 2.341-10.099 4.077-14.842l-48.701-5.017 44.626 19.857zM597.144 559.477c2.227-4.722 4.872-9.233 7.839-13.477l-45.982-17.453 38.144 30.933zM610.102 539.415c3.388-4.016 7.060-7.692 11.079-11.079l-40.027-28.947 28.947 40.027zM627.763 523.216c4.248-2.967 8.759-5.612 13.477-7.839l-30.933-38.144 17.453 45.982zM649.079 512.244c4.749-1.736 9.744-3.137 14.842-4.077l-19.857-44.626 5.017 48.701zM672.488 506.913c2.552-0.213 5.12-0.418 7.735-0.418 2.612 0 5.184 0.204 7.735 0.418l-7.735-48.176-7.735 48.176zM712.82 514.333c-5.949-2.311-12.23-4.113-18.707-5.12l25.082-56.119-6.374 61.242zM732.677 523.219l17.453-45.982-30.933 38.144c4.722 2.227 9.233 4.872 13.477 7.839zM750.335 539.418l28.947-40.027-40.027 28.947c4.016 3.388 7.692 7.060 11.079 11.079zM762.772 561.991c-2.643-5.955-5.909-11.628-9.718-16.821l57.48-21.948-47.759 38.772zM769.464 584.568c-1.007-6.478-2.809-12.759-5.12-18.707l61.242-6.374-56.119 25.082zM769.989 608.179c0.345-3.204 0.521-6.424 0.521-9.718s-0.177-6.514-0.521-9.718l60.731 9.718-60.731 9.718zM825.586 637.44l-61.242-6.374c2.311-5.949 4.113-12.23 5.12-18.707l56.119 25.082zM810.533 673.704l-57.48-21.948c3.809-5.196 7.077-10.872 9.718-16.821l47.759 38.772zM786.599 704.853l-49.849-36.054c5.087-4.096 9.699-8.708 13.795-13.795l36.054 49.849zM755.455 728.783l-38.772-47.759c5.955-2.643 11.628-5.909 16.821-9.718l21.948 57.48zM719.187 743.836l-25.082-56.119c6.478-1.007 12.759-2.809 18.707-5.12l6.374 61.242zM680.207 748.959l-9.718-60.731c3.204 0.345 6.424 0.521 9.718 0.521s6.514-0.177 9.718-0.521l-9.718 60.731zM345.787 641.944l-8.361-4.495-66.884-100.326 8.361-15.57h314.155l15.781 21.738c-0.14 0.18-0.281 0.341-0.418 0.521l-0.418-0.21-57.48-21.948-1.673 2.823 0.418 0.314 47.34 38.458 0.314 0.314c-0.083 0.204-0.123 0.424-0.21 0.629h-0.418l-61.253-6.374-0.94 3.241 56.641 25.292c-0.026 0.204-0.078 0.421-0.104 0.629l-0.521 0.104-60.731 9.718v3.344l61.253 9.822c0.026 0.21 0.078 0.418 0.104 0.629l-0.521 0.21-56.119 25.082 0.94 3.241 0.521-0.104 61.149-6.271c0.083 0.204 0.123 0.424 0.21 0.629l-0.314 0.314-10.132 8.258h-240.679zM625.037 527.115l-0.418-0.314-7.21-5.227h6.167l1.776 4.702 0.21 0.418c-0.18 0.137-0.341 0.277-0.521 0.418zM735.4 527.111c-0.177-0.137-0.345-0.281-0.521-0.418l0.21-0.418 1.776-4.702h6.167l-7.21 5.227-0.418 0.314zM345.804 458.037l-6.063-1.987-66.884-50.163 6.063-18.078h468.189l6.063 18.078-66.884 50.163-2.927 0.94-1.464-9.299h-3.344l-1.673 10.347h-31.563l-2.508-5.645-3.241 0.94 0.104 0.521 0.418 4.181h-294.29zM345.8 357.708l-2.404-0.314-66.884-16.721 2.404-19.751h468.189l2.404 19.751-66.884 16.721-2.404 0.314h-334.419zM344.753 314.232l-66.884-6.689 1.046-20.065h468.174l1.046 20.065-67.406 6.689h-335.986zM278.907 284.135v-20.065h468.189v20.065h-468.189zM278.907 260.726v-20.065h468.189v20.065h-468.189zM256.436 892.78l-2.927-5.017-253.742-439.763 2.927-5.017 253.742-439.763h513.128l2.927 5.017 253.742 439.763-2.927 5.017-253.742 439.763h-513.128zM267.934 872.714h490.126l244.963-424.713-244.963-424.713h-490.126l-244.963 424.713 244.963 424.713zM613.322 183.743c-10.962 0-20.065-9.102-20.065-20.065s9.102-20.065 20.065-20.065c10.962 0 20.065 9.102 20.065 20.065s-9.102 20.065-20.065 20.065zM680.207 183.743c-10.962 0-20.065-9.102-20.065-20.065s9.102-20.065 20.065-20.065c10.962 0 20.065 9.102 20.065 20.065s-9.102 20.065-20.065 20.065zM747.091 183.743c-10.962 0-20.065-9.102-20.065-20.065s9.102-20.065 20.065-20.065c10.962 0 20.065 9.102 20.065 20.065s-9.102 20.065-20.065 20.065z" />
<glyph unicode="&#xe602;" glyph-name="abotconnectalt" horiz-adv-x="1026" d="M976.033 777.044c-21.856 0-40.351-13.974-47.246-33.471h-120.112c-0.26 0.015-0.565 0.023-0.871 0.023s-0.611-0.008-0.914-0.024c-6.387-0.706-11.669-4.963-13.847-10.744l-107.273-268.156h-100.242c-0.26 0.015-0.565 0.023-0.871 0.023s-0.611-0.008-0.914-0.024c-3.26 15.924-11.171 30.745-22.796 42.366-15.615 15.615-37.013 24.579-59.1 24.579v-27.894c14.427 0 29.197-6.186 39.385-16.389 10.203-10.203 16.389-24.97 16.389-39.385 0-14.427-6.186-29.197-16.389-39.385-10.203-10.203-24.97-16.389-39.385-16.389v-27.894c22.085 0 43.485 8.965 59.1 24.579 11.62 11.62 19.535 26.437 22.839 42.364 0.079-0.002 0.17-0.002 0.262-0.002s0.183 0 0.274 0.002c0.169-0.007 0.382-0.012 0.596-0.012s0.429 0.003 0.641 0.012l100.211-0.002 107.389-268.443c2.552-6.186 8.535-10.46 15.515-10.46 0 0 0 0 0 0h120.112c6.895-19.498 25.383-33.471 47.246-33.471 27.732 0 50.208 22.483 50.208 50.208 0 27.732-22.483 50.208-50.208 50.208-21.856 0-40.351-13.974-47.246-33.471h-108.783l-98.15 245.459h206.912c6.895-19.498 25.383-33.471 47.246-33.471 27.732 0 50.208 22.483 50.208 50.208 0 27.732-22.483 50.208-50.208 50.208-21.856 0-40.351-13.974-47.246-33.471h-206.912l98.15 245.459h108.783c6.895-19.498 25.383-33.471 47.246-33.471 27.732 0 50.208 22.483 50.208 50.208 0 27.732-22.483 50.208-50.208 50.208zM-0.225 810.591v-27.894c14.427 0 29.197-6.186 39.385-16.389l0.174-0.174c10.103-10.198 16.211-24.875 16.211-39.218 0-14.348-6.115-29.026-16.211-39.218l-0.174-0.174c-10.203-10.203-24.97-16.389-39.385-16.389v-27.894c22.085 0 43.485 8.965 59.1 24.579 11.62 11.62 19.535 26.437 22.839 42.364 0.26-0.015 0.565-0.023 0.871-0.023s0.611 0.008 0.914 0.024l155.987-0.002 98.15-245.459h-254.179c-0.26 0.015-0.565 0.023-0.871 0.023s-0.611-0.008-0.914-0.024c-3.26 15.924-11.171 30.745-22.796 42.366-15.615 15.615-37.013 24.579-59.1 24.579v-27.894c14.427 0 29.197-6.186 39.385-16.389l0.174-0.174c10.103-10.198 16.211-24.875 16.211-39.218 0-14.348-6.115-29.026-16.211-39.218l-0.174-0.174c-10.203-10.203-24.97-16.389-39.385-16.389v-27.894c22.085 0 43.485 8.965 59.1 24.579 11.62 11.62 19.535 26.437 22.839 42.364 0.26-0.015 0.565-0.023 0.871-0.023s0.611 0.008 0.914 0.024l254.137-0.002-98.15-245.459h-156.029c-0.26 0.015-0.565 0.023-0.871 0.023s-0.611-0.008-0.914-0.024c-3.26 15.924-11.171 30.745-22.796 42.366-15.615 15.615-37.013 24.579-59.1 24.579v-27.894c14.427 0 29.197-6.186 39.385-16.389 10.203-10.203 16.389-24.97 16.389-39.385 0-14.427-6.186-29.197-16.389-39.385-10.203-10.203-24.97-16.389-39.385-16.389v-27.894c22.085 0 43.485 8.965 59.1 24.579 11.632 11.632 19.715 26.421 23.012 42.364 0.234-0.012 0.508-0.018 0.785-0.018s0.551 0.007 0.823 0.019l167.32-0.002c6.982 0 12.964 4.274 15.474 10.349l107.43 268.555h80.889c6.895-19.498 25.383-33.471 47.246-33.471 27.732 0 50.208 22.483 50.208 50.208 0 27.732-22.483 50.208-50.208 50.208-21.856 0-40.351-13.974-47.246-33.471h-80.889l-107.389 268.443c-2.552 6.186-8.535 10.46-15.515 10.46h-167.358c-0.26 0.015-0.565 0.023-0.871 0.023s-0.611-0.008-0.914-0.024c-3.26 15.924-11.171 30.745-22.796 42.366-15.615 15.615-37.013 24.579-59.1 24.579z" />
<glyph unicode="&#xe603;" glyph-name="abotconnect" horiz-adv-x="1026" d="M256.443 892.779l-2.927-5.017-253.742-439.762 2.927-5.017 253.742-439.762h513.128l2.927 5.017 253.742 439.762-2.927 5.017-253.742 439.762h-513.128zM267.94 872.714h490.125l244.963-424.713-244.963-424.713h-490.125l-244.963 424.713 244.963 424.713zM195.308 665.374v-16.721c8.649 0 17.503-3.708 23.609-9.825l0.104-0.104c6.056-6.114 9.718-14.911 9.718-23.51 0-8.601-3.665-17.4-9.718-23.51l-0.104-0.104c-6.116-6.116-14.969-9.825-23.609-9.825v-16.721c13.24 0 26.068 5.374 35.428 14.734 6.966 6.966 11.711 15.848 13.691 25.396 0.156-0.009 0.339-0.014 0.522-0.014s0.367 0.005 0.548 0.015l93.509-0.001 58.838-147.145h-152.372c-0.156 0.009-0.339 0.014-0.522 0.014s-0.367-0.005-0.548-0.015c-1.954 9.546-6.696 18.431-13.665 25.397-9.36 9.36-22.189 14.734-35.428 14.734v-16.721c8.649 0 17.503-3.708 23.609-9.825l0.104-0.104c6.056-6.114 9.718-14.911 9.718-23.51 0-8.601-3.665-17.4-9.718-23.51l-0.104-0.104c-6.116-6.116-14.969-9.825-23.609-9.825v-16.721c13.24 0 26.068 5.374 35.428 14.734 6.966 6.966 11.711 15.848 13.691 25.396 0.156-0.009 0.339-0.014 0.522-0.014s0.367 0.005 0.548 0.015l152.347-0.001-58.838-147.145h-93.534c-0.156 0.009-0.339 0.014-0.522 0.014s-0.367-0.005-0.548-0.015c-1.954 9.546-6.696 18.431-13.665 25.397-9.36 9.36-22.189 14.734-35.428 14.734v-16.721c8.649 0 17.503-3.708 23.609-9.825 6.116-6.116 9.825-14.969 9.825-23.609 0-8.649-3.708-17.503-9.825-23.609-6.116-6.116-14.969-9.825-23.609-9.825v-16.721c13.24 0 26.068 5.374 35.428 14.734 6.973 6.973 11.819 15.839 13.795 25.396 0.14-0.007 0.305-0.011 0.47-0.011s0.33 0.004 0.494 0.012l100.302-0.001c4.186 0 7.771 2.562 9.276 6.204l64.401 160.989h48.49c4.133-11.689 15.216-20.065 28.323-20.065 16.624 0 30.097 13.477 30.097 30.097 0 16.624-13.477 30.097-30.097 30.097-13.102 0-24.189-8.377-28.323-20.065h-48.49l-64.376 160.924c-1.529 3.708-5.117 6.271-9.3 6.271h-100.326c-0.156 0.009-0.339 0.014-0.522 0.014s-0.367-0.005-0.548-0.015c-1.954 9.546-6.696 18.431-13.665 25.397-9.36 9.36-22.189 14.734-35.428 14.734zM780.542 645.302c-13.102 0-24.189-8.377-28.323-20.065h-72.004c-0.156 0.009-0.339 0.014-0.522 0.014s-0.367-0.005-0.548-0.015c-3.829-0.423-6.995-2.975-8.3-6.441l-64.307-160.751h-60.092c-0.156 0.009-0.339 0.014-0.522 0.014s-0.367-0.005-0.548-0.015c-1.954 9.546-6.696 18.431-13.665 25.397-9.36 9.36-22.189 14.734-35.428 14.734v-16.721c8.649 0 17.503-3.708 23.609-9.825 6.116-6.116 9.825-14.969 9.825-23.609 0-8.649-3.708-17.503-9.825-23.609-6.116-6.116-14.969-9.825-23.609-9.825v-16.721c13.24 0 26.068 5.374 35.428 14.734 6.966 6.966 11.711 15.848 13.691 25.396 0.047-0.001 0.102-0.001 0.157-0.001s0.11 0 0.165 0.001c0.101-0.004 0.229-0.007 0.358-0.007s0.257 0.002 0.384 0.007l60.073-0.001 64.376-160.924c1.529-3.708 5.117-6.271 9.3-6.271h72.004c4.133-11.689 15.216-20.065 28.323-20.065 16.624 0 30.097 13.477 30.097 30.097 0 16.624-13.477 30.097-30.097 30.097-13.102 0-24.189-8.377-28.323-20.065h-65.212l-58.838 147.145h124.037c4.133-11.689 15.216-20.065 28.323-20.065 16.624 0 30.097 13.477 30.097 30.097 0 16.624-13.477 30.097-30.097 30.097-13.102 0-24.189-8.377-28.323-20.065h-124.037l58.838 147.145h65.212c4.133-11.689 15.216-20.065 28.323-20.065 16.624 0 30.097 13.477 30.097 30.097 0 16.624-13.477 30.097-30.097 30.097z" />
<glyph unicode="&#xe604;" glyph-name="abotcorealt" horiz-adv-x="1026" d="M657.281 452.881c0-82.37-66.774-149.144-149.144-149.144s-149.144 66.774-149.144 149.144c0 82.37 66.774 149.144 149.144 149.144s149.144-66.774 149.144-149.144zM508.137 721.342v-89.487c34.895 0 70.354-10.815 99.365-30.205 28.856-19.282 52.422-47.786 65.803-79.792l0.185-0.561c13.351-32.24 17.062-69.061 10.256-103.286s-24.359-67.049-49.033-91.724c-24.675-24.675-57.499-42.22-91.724-49.033-34.225-6.808-71.046-3.102-103.286 10.256-32.24 13.351-60.965 36.982-80.353 65.981-19.388 29.017-30.198 64.473-30.198 99.365h-89.487c0-52.958 15.88-105.112 45.305-149.144s71.506-78.546 120.449-98.811c48.926-20.266 103.172-25.623 155.111-15.29s99.956 36.034 137.392 73.456c37.446 37.446 63.118 85.46 73.456 137.392 10.333 51.937 4.976 106.185-15.29 155.111s-54.778 91.015-98.811 120.449c-44.034 29.424-96.169 45.305-149.144 45.305zM508.13 840.639v-89.487c58.322 0 117.245-17.957 165.736-50.34 48.496-32.401 87.489-79.977 109.807-133.86 22.318-53.87 28.344-115.062 16.968-172.262-11.383-57.2-40.412-111.446-81.66-152.689-41.241-41.241-95.512-70.277-152.689-81.66-57.2-11.383-118.38-5.352-172.262 16.968-53.472 22.145-100.727 60.708-133.115 108.692l-0.746 1.122c-32.401 48.496-50.34 107.384-50.34 165.736h-89.487c0-76.386 22.997-152.002 65.439-215.485 42.435-63.511 103.37-113.589 173.963-142.809 70.569-29.232 149.204-36.905 224.093-22.001 74.262 14.778 143.239 51.521 197.050 104.777l1.491 1.307c53.991 53.991 91.175 123.635 106.077 198.542 14.903 74.912 7.231 153.517-22.001 224.093-29.232 70.569-79.297 131.486-142.809 173.963-63.511 42.435-139.128 65.439-215.485 65.439zM508.16 960v-89.487c81.749 0 163.946-25.051 231.92-70.474 67.975-45.418 122.525-111.834 153.804-187.362 31.285-75.527 39.816-161.064 23.863-241.256-15.952-80.18-56.473-156.006-114.304-213.839-57.808-57.808-133.657-98.329-213.839-114.304-80.18-15.952-165.719-7.421-241.256 23.863-75.527 31.285-141.943 85.831-187.362 153.804s-70.474 150.16-70.474 231.92h-89.487c0-99.813 29.948-198.72 85.388-281.706 55.452-82.99 135.417-148.608 227.655-186.788 92.214-38.193 195.178-48.37 293.040-28.898 97.892 19.479 188.936 68.314 259.512 138.89s119.435 161.613 138.89 259.512c19.479 97.892 9.3 200.856-28.898 293.040-38.193 92.214-103.81 172.179-186.788 227.655-82.99 55.452-181.886 85.388-281.706 85.388z" />
<glyph unicode="&#xe605;" glyph-name="abotcore" horiz-adv-x="1026" d="M513.021 732.268v-50.163c45.825 0 91.902-14.043 130.006-39.505 38.104-25.46 68.683-62.69 86.217-105.028 17.538-42.338 22.32-90.286 13.376-135.24-8.942-44.946-31.657-87.452-64.075-119.87-32.405-32.405-74.923-55.12-119.87-64.075-44.946-8.942-92.896-4.16-135.24 13.376-42.338 17.538-79.568 48.113-105.028 86.217s-39.505 84.174-39.505 130.006h-50.163c0-55.951 16.788-111.396 47.866-157.913 31.085-46.522 75.91-83.304 127.615-104.707 51.692-21.409 109.409-27.114 164.267-16.199 54.874 10.919 105.91 38.294 145.473 77.856s66.951 90.595 77.856 145.473c10.919 54.874 5.214 112.592-16.199 164.267-21.409 51.692-58.192 96.517-104.707 127.615-46.522 31.085-101.959 47.866-157.913 47.866zM512.997 665.36v-50.163c32.693 0 65.723-10.066 92.906-28.219 27.185-18.162 49.043-44.832 61.553-75.037 12.51-30.198 15.889-64.5 9.512-96.564-6.381-32.064-22.653-62.473-45.776-85.591-23.118-23.118-53.54-39.395-85.591-45.776-32.064-6.381-66.36-3-96.564 9.512-29.974 12.413-56.464 34.031-74.619 60.929l-0.418 0.629c-18.162 27.185-28.219 60.196-28.219 92.906h-50.163c0-42.819 12.891-85.206 36.683-120.793 23.787-35.602 57.945-63.673 97.517-80.053 39.559-16.386 83.638-20.687 125.618-12.333 41.628 8.284 80.294 28.881 110.459 58.734l0.836 0.733c30.265 30.265 51.11 69.305 59.462 111.296 8.355 41.993 4.053 86.056-12.333 125.618-16.386 39.559-44.451 73.707-80.053 97.517-35.602 23.787-77.989 36.683-120.793 36.683zM513.014 598.499v-50.163c19.561 0 39.437-6.063 55.701-16.932 16.176-10.808 29.386-26.787 36.887-44.729l0.104-0.314c7.484-18.072 9.564-38.713 5.749-57.898s-13.655-37.585-27.486-51.417c-13.832-13.832-32.232-23.667-51.417-27.486-19.185-3.816-39.825-1.739-57.898 5.749-18.072 7.484-34.174 20.73-45.043 36.987-10.868 16.265-16.928 36.141-16.928 55.701h-50.163c0-29.686 8.902-58.922 25.396-83.604s40.083-44.030 67.519-55.39c27.426-11.36 57.834-14.364 86.949-8.571s56.031 20.2 77.017 41.177c20.991 20.991 35.382 47.906 41.177 77.017 5.793 29.114 2.789 59.524-8.571 86.949s-30.706 51.020-55.39 67.519c-24.684 16.494-53.909 25.396-83.604 25.396zM596.616 448.001c0-46.173-37.431-83.604-83.604-83.604s-83.604 37.431-83.604 83.604c0 46.173 37.431 83.604 83.604 83.604s83.604-37.431 83.604-83.604zM256.443 892.779l-2.927-5.017-253.742-439.762 2.927-5.017 253.742-439.762h513.128l2.927 5.017 253.742 439.762-2.927 5.017-253.742 439.762h-513.128zM267.941 872.714h490.125l244.963-424.713-244.963-424.713h-490.125l-244.963 424.713 244.963 424.713z" />
<glyph unicode="&#xe606;" glyph-name="abotdataflowalt" horiz-adv-x="1026" d="M730.476 69.986l-12.166-2.749-6.276-10.985 3.73-11.965 9.027-5.104 6.276-1.18 12.166 2.944 6.083 10.792-3.535 11.965-9.222 5.104-6.083 1.18zM656.32 83.52l-12.166-2.944-6.276-10.792 3.73-11.965 9.027-5.299 6.276-0.979 12.166 2.749 6.276 10.985-3.73 11.965-9.222 5.104-6.083 1.18zM582.163 97.061l-12.166-2.944-6.276-10.792 3.73-11.965 9.222-5.299 6.083-1.18 12.166 2.944 6.276 10.792-3.73 11.965-9.027 5.299-6.276 1.18zM508.008 110.4l-12.166-2.749-6.083-10.985 3.535-11.965 9.222-5.104 6.083-1.18 12.166 2.944 6.276 10.792-3.73 11.965-9.027 5.299-6.276 0.979zM779.134 118.435l-11.965-3.535-5.687-11.18 3.139-10.201 3.535-4.903 7.062-4.318c-11.758-12.398-19.020-29.133-19.020-47.477 0-37.98 31.068-69.053 69.053-69.053 37.98 0 69.053 31.068 69.053 69.053 0 37.98-31.068 69.053-69.053 69.053-10.447 0-20.334-2.474-29.228-6.672l-2.354 7.848-3.73 4.903-10.792 6.471zM434.078 123.916l-12.361-2.944-6.083-10.792 3.73-11.965 9.027-5.104 6.083-1.18 12.166 2.749 6.276 10.985-3.73 11.965-9.027 5.104-6.083 1.18zM359.921 137.45l-12.166-2.944-6.276-10.792 3.73-11.965 9.027-5.299 6.276-1.18 12.166 2.944 6.083 10.792-3.535 11.965-9.222 5.299-6.083 1.18zM734.808 179.232l-11.965-3.535-5.494-11.18 2.944-10.006 3.73-5.104 10.792-6.276 11.965 3.535 5.494 11.18-2.944 10.006-3.73 5.104-10.792 6.276zM690.489 240.243l-11.965-3.535-5.494-11.18 2.944-10.201 3.73-4.903 10.792-6.471 11.965 3.535 5.494 11.18-2.944 10.201-3.73 5.104-10.792 6.276zM267.322 137.062l3.73-11.77 9.027-5.299 6.276-1.18 12.166 2.944 6.276 10.792-3.73 11.965-9.222 5.299-6.083 0.979-12.166-2.749-6.276-10.985zM134.741 297.326c-74.426 0-134.967-60.54-134.967-134.967s60.54-134.967 134.967-134.967c65.763 0 120.716 47.313 132.582 109.663 1.569 8.217 2.354 16.643 2.354 25.299 0 74.426-60.54 134.967-134.967 134.967zM646.138 301.243l-11.965-3.73-5.494-11.18 2.944-10.006 3.73-5.104 10.792-6.276 11.965 3.535 5.494 11.18-2.944 10.006-3.73 5.104-10.792 6.471zM602.007 362.058l-12.166-3.535-5.494-11.18 2.944-10.006 3.73-5.104 10.792-6.471 11.965 3.535 5.687 11.38-3.139 10.006-3.535 5.104-10.792 6.276zM557.681 423.076l-11.965-3.73-5.687-11.18 2.944-10.006 3.73-5.104 10.792-6.276 11.965 3.535 5.687 11.18-2.944 10.006-3.73 5.104-10.792 6.471zM513.362 483.892l-11.965-3.535-5.687-11.18 2.944-10.006 3.73-5.104 10.792-6.471 11.965 3.73 5.687 11.18-2.944 10.006-3.73 5.104-10.792 6.276zM469.043 544.903l-11.965-3.535-5.687-11.18 3.139-10.201 3.535-5.104 10.792-6.276 12.166 3.535 5.494 11.18-2.944 10.006-3.73 5.104-10.792 6.471zM424.729 605.721l-11.965-3.535-5.494-11.18 2.944-10.006 3.73-5.104 10.792-6.276 11.965 3.535 5.494 11.18-2.944 10.006-3.73 5.104-10.792 6.276zM380.411 666.731l-11.965-3.535-5.494-11.18 2.944-10.201 3.73-5.104 10.792-6.276 11.965 3.535 5.494 11.18-2.944 10.201-3.73 4.903-10.792 6.471zM477.323 760.297l-6.276-0.786-10.792-6.083-2.749-12.361 6.867-10.394 10.201-2.354 6.276 0.786 10.792 6.276 2.944 12.166-7.062 10.394-10.201 2.354zM552.265 768.539l-6.276-0.591-10.792-6.276-2.944-12.166 7.062-10.394 10.201-2.354 6.276 0.591 10.792 6.276 2.749 12.166-6.867 10.394-10.201 2.354zM627.205 776.977l-6.276-0.786-10.985-6.276-2.749-12.166 6.867-10.394 10.201-2.354 6.276 0.786 10.985 6.083 2.749 12.166-6.867 10.394-10.201 2.549zM701.945 785.219l-6.276-0.591-10.792-6.276-2.749-12.166 6.867-10.394 10.201-2.354 6.276 0.591 10.792 6.276 2.944 12.166-7.062 10.394-10.201 2.354zM323.161 799.537c-39.686 0-72.19-32.504-72.19-72.19s32.504-72.19 72.19-72.19c37.54 0 68.544 29.177 71.802 65.914l4.708-0.979 6.276 0.591 10.985 6.276 2.749 12.166-6.867 10.394-10.201 2.354-6.276-0.591-4.318-2.549c-9.185 29.335-36.612 50.811-68.858 50.811zM888.136 928.232c-76.147 0-138.104-61.978-138.104-138.104 0-76.147 61.978-138.104 138.104-138.104 76.147 0 138.104 61.978 138.104 138.104 0 76.147-61.978 138.104-138.104 138.104z" />
<glyph unicode="&#xe607;" glyph-name="abotdataflow" horiz-adv-x="1026" d="M256.443 892.779l-2.927-5.017-253.742-439.762 2.927-5.017 253.742-439.762h513.128l2.927 5.017 253.742 439.762-2.927 5.017-253.742 439.762h-513.128zM267.94 872.714h490.125l244.963-424.713-244.963-424.713h-490.125l-244.963 424.713 244.963 424.713zM680.213 688.784c-40.565 0-73.572-33.017-73.572-73.572 0-40.565 33.017-73.572 73.572-73.572 40.565 0 73.572 33.017 73.572 73.572 0 40.565-33.017 73.572-73.572 73.572zM379.235 620.227c-21.142 0-38.458-17.317-38.458-38.458s17.317-38.458 38.458-38.458c19.999 0 36.515 15.544 38.251 35.114l2.508-0.521 3.344 0.314 5.852 3.344 1.464 6.481-3.658 5.537-5.435 1.254-3.344-0.314-2.3-1.358c-4.893 15.628-19.503 27.069-36.683 27.069zM581.025 612.602l-3.344-0.314-5.749-3.344-1.464-6.481 3.658-5.537 5.435-1.254 3.344 0.314 5.749 3.344 1.568 6.481-3.762 5.537-5.435 1.254zM541.208 608.212l-3.344-0.418-5.852-3.344-1.464-6.481 3.658-5.537 5.435-1.254 3.344 0.418 5.852 3.241 1.464 6.481-3.658 5.537-5.435 1.358zM501.286 603.717l-3.344-0.314-5.749-3.344-1.568-6.481 3.762-5.537 5.435-1.254 3.344 0.314 5.749 3.344 1.464 6.481-3.658 5.537-5.435 1.254zM461.362 599.326l-3.344-0.418-5.749-3.241-1.464-6.585 3.658-5.537 5.435-1.254 3.344 0.418 5.749 3.344 1.568 6.481-3.762 5.537-5.435 1.254zM409.734 549.478l-6.374-1.883-2.927-5.955 1.568-5.435 1.987-2.718 5.749-3.344 6.374 1.883 2.927 5.955-1.568 5.435-1.987 2.612-5.749 3.448zM433.344 516.972l-6.374-1.883-2.927-5.955 1.568-5.331 1.987-2.718 5.749-3.344 6.374 1.883 2.927 5.955-1.568 5.331-1.987 2.718-5.749 3.344zM456.954 484.573l-6.374-1.883-3.030-5.955 1.673-5.435 1.883-2.718 5.749-3.344 6.481 1.883 2.927 5.955-1.568 5.331-1.987 2.718-5.749 3.448zM480.568 452.071l-6.374-1.883-3.030-5.955 1.568-5.331 1.987-2.718 5.749-3.448 6.374 1.987 3.030 5.955-1.568 5.331-1.987 2.718-5.749 3.344zM504.178 419.673l-6.374-1.987-3.030-5.955 1.568-5.331 1.987-2.718 5.749-3.344 6.374 1.883 3.030 5.955-1.568 5.331-1.987 2.718-5.749 3.448zM527.788 387.169l-6.481-1.883-2.927-5.955 1.568-5.331 1.987-2.718 5.749-3.448 6.374 1.883 3.030 6.063-1.673 5.331-1.883 2.718-5.749 3.344zM551.295 354.775l-6.374-1.987-2.927-5.955 1.568-5.331 1.987-2.718 5.749-3.344 6.374 1.883 2.927 5.955-1.568 5.331-1.987 2.718-5.749 3.448zM278.842 352.684c-39.649 0-71.901-32.251-71.901-71.901s32.251-71.901 71.901-71.901c35.034 0 64.309 25.205 70.63 58.42 0.836 4.378 1.254 8.866 1.254 13.477 0 39.649-32.251 71.901-71.901 71.901zM349.455 267.301l1.987-6.271 4.808-2.823 3.344-0.629 6.481 1.568 3.344 5.749-1.987 6.374-4.912 2.823-3.241 0.521-6.481-1.464-3.344-5.852zM574.888 322.269l-6.374-1.883-2.927-5.955 1.568-5.435 1.987-2.612 5.749-3.448 6.374 1.883 2.927 5.955-1.568 5.435-1.987 2.718-5.749 3.344zM598.498 289.77l-6.374-1.883-2.927-5.955 1.568-5.331 1.987-2.718 5.749-3.344 6.374 1.883 2.927 5.955-1.568 5.331-1.987 2.718-5.749 3.344zM398.785 267.511l-6.481-1.568-3.344-5.749 1.987-6.374 4.808-2.823 3.344-0.629 6.481 1.568 3.241 5.749-1.883 6.374-4.912 2.823-3.241 0.629zM438.29 260.302l-6.585-1.568-3.241-5.749 1.987-6.374 4.808-2.718 3.241-0.629 6.481 1.464 3.344 5.852-1.987 6.374-4.808 2.718-3.241 0.629zM622.117 257.375l-6.374-1.883-3.030-5.955 1.673-5.435 1.883-2.612 3.762-2.3c-6.264-6.604-10.132-15.52-10.132-25.292 0-20.233 16.55-36.787 36.787-36.787 20.233 0 36.787 16.55 36.787 36.787 0 20.233-16.55 36.787-36.787 36.787-5.565 0-10.833-1.318-15.57-3.554l-1.254 4.181-1.987 2.612-5.749 3.448zM477.688 253.084l-6.481-1.464-3.241-5.852 1.883-6.374 4.912-2.718 3.241-0.629 6.481 1.568 3.344 5.749-1.987 6.374-4.808 2.823-3.344 0.521zM517.194 245.974l-6.481-1.568-3.344-5.749 1.987-6.374 4.912-2.823 3.241-0.629 6.481 1.568 3.344 5.749-1.987 6.374-4.808 2.823-3.344 0.629zM556.698 238.765l-6.481-1.568-3.344-5.749 1.987-6.374 4.808-2.823 3.344-0.521 6.481 1.464 3.344 5.852-1.987 6.374-4.912 2.718-3.241 0.629zM596.204 231.557l-6.481-1.464-3.344-5.852 1.987-6.374 4.808-2.718 3.344-0.629 6.481 1.568 3.241 5.749-1.883 6.374-4.912 2.718-3.241 0.629z" />
<glyph unicode="&#xe608;" glyph-name="abottutoralt" horiz-adv-x="1026" d="M233.894 411.104v-149.498c0-61.683 124.965-111.646 279.113-111.646s279.113 49.984 279.113 111.646v149.498l-279.113-111.651-6.28 2.445-272.834 109.206zM513.007 746.040l513.233-205.321-513.233-205.321-513.233 205.321 513.233 205.321z" />
<glyph unicode="&#xe609;" glyph-name="abottutor" horiz-adv-x="1026" d="M513.001 654.606l307.466-123.003-307.466-123.003-307.466 123.003 307.466 123.003zM345.79 453.954v-89.561c0-36.953 74.864-66.884 167.211-66.884s167.211 29.944 167.211 66.884v89.561l-167.211-66.887-3.762 1.464-163.448 65.423zM256.436 892.779l-2.927-5.017-253.742-439.762 2.927-5.017 253.742-439.762h513.128l2.927 5.017 253.742 439.762-2.927 5.017-253.742 439.762h-513.128zM267.933 872.714h490.126l244.963-424.713-244.963-424.713h-490.126l-244.963 424.713 244.963 424.713z" />
<glyph unicode="&#xe60a;" glyph-name="cameraclosealt" horiz-adv-x="1026" d="M506.117 428.223l-373.232-323.422c93.678-103.683 229.246-168.801 380.075-168.801 29.508 0 58.393 2.561 86.532 7.345l-93.386 484.876zM526.68 432.302l93.386-485.033c172.823 36.78 313.317 160.546 373.388 323.422l-466.747 161.633zM25.844 605.565c-16.024-49.637-24.815-102.56-24.815-157.568 0-124.554 44.502-238.603 118.363-327.36l373.232 323.422-466.747 161.465zM906.656 775.316l-373.232-323.422 466.747-161.465c16.024 49.637 24.815 102.56 24.815 157.568 0 124.554-44.502 238.603-118.363 327.36zM405.919 948.756c-172.823-36.78-313.317-160.546-373.388-323.422l466.747-161.633-93.386 485.033zM512.992 959.998c-29.508 0-58.393-2.561-86.532-7.345l93.386-484.876 373.232 323.422c-93.678 103.683-229.246 168.801-380.075 168.801z" />
<glyph unicode="&#xe60b;" glyph-name="cameraclose" horiz-adv-x="1026" d="M256.443 892.779l-2.927-5.017-253.742-439.762 2.927-5.017 253.742-439.762h513.128l2.927 5.017 253.742 439.762-2.927 5.017-253.742 439.762h-513.128zM267.94 872.714h490.125l244.963-424.713-244.963-424.713h-490.125l-244.963 424.713 244.963 424.713zM513.004 775.733c-18.889 0-37.378-1.639-55.39-4.702l59.778-310.374 238.91 207.026c-59.965 66.369-146.743 108.052-243.29 108.052zM444.453 768.523c-110.627-23.544-200.558-102.767-239.010-207.026l298.771-103.463-59.778 310.475zM764.945 657.515l-238.91-207.026 298.771-103.355c10.257 31.773 15.885 65.65 15.885 100.861 0 79.729-28.487 152.733-75.766 209.547zM201.127 548.855c-10.257-31.773-15.885-65.65-15.885-100.861 0-79.729 28.487-152.733 75.766-209.547l238.91 207.026-298.771 103.355zM521.755 437.935l59.778-310.475c110.627 23.544 200.558 102.767 239.010 207.026l-298.771 103.463zM508.602 435.337l-238.91-207.026c59.965-66.369 146.743-108.052 243.29-108.052 18.889 0 37.378 1.639 55.39 4.702l-59.778 310.374z" />
<glyph unicode="&#xe60c;" glyph-name="cameraopenalt" horiz-adv-x="1026" d="M139.249 97.96c93.405-99.684 226.222-161.96 373.712-161.96 30.574 0 60.536 2.706 89.654 7.837l-0.491 0.329 88.818 153.801h-551.666zM904.985 427.425l-186.939-323.922 0.162-0.162-88.974-154.124c169.682 39.34 306.985 162.954 365.395 324.392l-0.654-0.329-88.974 154.124zM22.888 596.548c-14.216-47.010-21.88-96.906-21.88-148.575 0-125.599 45.183-240.59 120.165-329.616v0.491h177.948l-186.939 323.922-0.329-0.162-88.974 153.963zM904.833 777.631v-0.491h-177.948l186.939-323.922 0.329 0.162 88.974-153.963c14.216 47.010 21.88 96.906 21.88 148.575 0 125.599-45.183 240.59-120.165 329.616zM396.756 946.755c-169.682-39.34-306.985-162.954-365.395-324.392l0.654 0.329 88.974-154.124 186.939 323.922-0.162 0.162 88.974 154.124zM512.988 960c-30.574 0-60.536-2.706-89.654-7.837l0.491-0.329-88.818-153.801h551.666c-93.405 99.684-226.222 161.96-373.712 161.96z" />
<glyph unicode="&#xe60d;" glyph-name="cameraopen" horiz-adv-x="1026" d="M513.004 775.722c-19.57 0-38.749-1.732-57.387-5.017l0.314-0.21-56.852-98.447h353.117c-59.788 63.807-144.804 103.67-239.211 103.67zM438.578 767.255c-108.612-25.181-196.499-104.305-233.887-207.641l0.418 0.21 56.952-98.654 119.658 207.34-0.104 0.104 56.952 98.654zM763.791 658.999v-0.314h-113.903l119.658-207.34 0.21 0.104 56.952-98.551c9.1 30.091 14.006 62.029 14.006 95.102 0 80.395-28.921 154-76.917 210.986zM199.263 543.090c-9.1-30.091-14.006-62.029-14.006-95.102 0-80.395 28.921-154 76.917-210.986v0.314h113.903l-119.658 207.34-0.21-0.104-56.952 98.551zM763.891 434.834l-119.658-207.34 0.104-0.104-56.952-98.654c108.612 25.181 196.499 104.305 233.887 207.641l-0.418-0.21-56.952 98.654zM273.776 223.935c59.788-63.807 144.804-103.67 239.211-103.67 19.57 0 38.749 1.732 57.387 5.017l-0.314 0.21 56.852 98.447h-353.117zM256.443 892.779l-2.927-5.017-253.742-439.762 2.927-5.017 253.742-439.762h513.128l2.927 5.017 253.742 439.762-2.927 5.017-253.742 439.762h-513.128zM267.94 872.714h490.125l244.963-424.713-244.963-424.713h-490.125l-244.963 424.713 244.963 424.713z" />
<glyph unicode="&#xe60e;" glyph-name="camerasubframealt" horiz-adv-x="1026" d="M972.216 150.866v-54.024h54.024v54.024h-54.024zM864.166 150.866v-54.024h54.024v54.024h-54.024zM756.118 150.866v-54.024h54.024v54.024h-54.024zM648.069 150.866v-54.024h54.024v54.024h-54.024zM540.019 150.866v-54.024h54.024v54.024h-54.024zM323.921 150.866v-54.024h54.024v54.024h-54.024zM215.872 150.866v-54.024h54.024v54.024h-54.024zM107.824 150.866v-54.024h54.024v54.024h-54.024zM-0.225 150.866v-40.519h54.024v40.519h-54.024zM972.216 258.914v-54.024h54.024v54.024h-54.024zM-0.225 258.914v-54.024h54.024v54.024h-54.024zM972.216 366.964v-54.024h54.024v54.024h-54.024zM-0.225 366.964v-54.024h54.024v54.024h-54.024zM972.216 583.060v-54.024h54.024v54.024h-54.024zM-0.225 583.060v-54.024h54.024v54.024h-54.024zM202.367 650.592h513.233v-351.159h-513.233v351.159zM972.216 691.11v-54.024h54.024v54.024h-54.024zM-0.225 691.11v-54.024h54.024v54.024h-54.024zM972.216 799.159v-54.024h54.024v54.024h-54.024zM864.166 799.159v-54.024h54.024v54.024h-54.024zM756.118 799.159v-54.024h54.024v54.024h-54.024zM648.069 799.159v-54.024h54.024v54.024h-54.024zM540.019 799.159v-54.024h54.024v54.024h-54.024zM431.971 799.159v-121.555h-256.616v-202.592h-175.579v-54.024h175.579v-148.568h256.616v-175.579h54.024v175.579h256.616v148.568h283.629v54.024h-283.629v202.592h-256.616v121.555h-54.024zM323.921 799.159v-54.024h54.024v54.024h-54.024zM215.872 799.159v-54.024h54.024v54.024h-54.024zM107.824 799.159v-54.024h54.024v54.024h-54.024zM-0.225 799.159v-54.024h54.024v54.024h-54.024z" />
<glyph unicode="&#xe60f;" glyph-name="camerasubframe" horiz-adv-x="1026" d="M256.436 892.779l-2.927-5.017-253.742-439.762 2.927-5.017 253.742-439.762h513.128l2.927 5.017 253.742 439.762-2.927 5.017-253.742 439.762h-513.128zM267.933 872.714h490.125l244.963-424.713-244.963-424.713h-490.125l-244.963 424.713 244.963 424.713zM195.301 665.374v-33.442h33.442v33.442h-33.442zM262.185 665.374v-33.442h33.442v33.442h-33.442zM329.069 665.374v-33.442h33.442v33.442h-33.442zM395.953 665.374v-33.442h33.442v33.442h-33.442zM462.836 665.374v-75.245h-158.849v-125.408h-108.686v-33.442h108.686v-91.966h158.849v-108.686h33.442v108.686h158.849v91.966h175.57v33.442h-175.57v125.408h-158.849v75.245h-33.442zM529.721 665.374v-33.442h33.442v33.442h-33.442zM596.605 665.374v-33.442h33.442v33.442h-33.442zM663.488 665.374v-33.442h33.442v33.442h-33.442zM730.372 665.374v-33.442h33.442v33.442h-33.442zM797.257 665.374v-33.442h33.442v33.442h-33.442zM195.301 598.49v-33.442h33.442v33.442h-33.442zM797.257 598.49v-33.442h33.442v33.442h-33.442zM320.708 573.409h317.699v-217.373h-317.699v217.373zM195.301 531.605v-33.442h33.442v33.442h-33.442zM797.257 531.605v-33.442h33.442v33.442h-33.442zM195.301 397.838v-33.442h33.442v33.442h-33.442zM797.257 397.838v-33.442h33.442v33.442h-33.442zM195.301 330.954v-33.442h33.442v33.442h-33.442zM797.257 330.954v-33.442h33.442v33.442h-33.442zM195.301 264.070v-25.082h33.442v25.082h-33.442zM262.185 264.070v-33.442h33.442v33.442h-33.442zM329.069 264.070v-33.442h33.442v33.442h-33.442zM395.953 264.070v-33.442h33.442v33.442h-33.442zM529.721 264.070v-33.442h33.442v33.442h-33.442zM596.605 264.070v-33.442h33.442v33.442h-33.442zM663.488 264.070v-33.442h33.442v33.442h-33.442zM730.372 264.070v-33.442h33.442v33.442h-33.442zM797.257 264.070v-33.442h33.442v33.442h-33.442z" />
<glyph unicode="&#xe610;" glyph-name="cooleralt" horiz-adv-x="1026" d="M512.244 515.637c-10.259-0.331-18.449-8.726-18.449-19.035 0-0.004 0-0.007 0-0.009v-339.619c-37.387-8.946-64.75-42.077-64.75-81.601 0-46.279 37.515-83.794 83.794-83.794s83.794 37.515 83.794 83.794c0 39.524-27.363 72.656-64.179 81.486l-0.571 339.734c0 0.002 0 0.006 0 0.009 0 10.517-8.527 19.044-19.044 19.044-0.21 0-0.418-0.004-0.625-0.009zM512.84 934.606c13.134 0 26.617-5.592 35.905-14.88 9.293-9.288 14.88-22.771 14.88-35.905v-705.62l6.347-3.574c21.506-12.416 38.901-32.407 48.404-55.349s11.192-49.217 4.761-73.199c-6.431-23.984-20.967-45.985-40.666-61.099-19.704-15.114-44.817-23.608-69.632-23.608-24.834 0-49.927 8.494-69.632 23.608s-34.242 37.117-40.666 61.099c-6.431 23.984-4.742 50.257 4.761 73.199s26.896 42.931 48.404 55.349l6.347 3.574v705.62c0 13.134 5.592 26.617 14.88 35.905 9.306 9.288 22.764 14.88 35.905 14.88zM512.84 960c-20.104 0-39.745-8.004-53.958-22.219s-22.219-33.853-22.219-53.958v-691.744c-23.374-15.306-42.055-37.231-52.771-63.087-11.692-28.237-13.865-59.952-5.955-89.444 7.91-29.518 25.52-56.186 49.794-74.785 24.25-18.6 54.542-28.763 85.101-28.763 30.508 0 60.681 10.227 84.904 28.763h0.197c24.25 18.6 41.884 45.267 49.794 74.785s5.745 61.233-5.955 89.444v0.197c-10.722 25.786-29.448 47.61-52.771 62.883v691.75c0 20.104-8.004 39.745-22.219 53.958-14.207 14.22-33.822 22.219-53.946 22.219z" />
<glyph unicode="&#xe611;" glyph-name="coolercooldownalt" horiz-adv-x="1026" d="M513.021 934.606c13.134 0 26.617-5.592 35.905-14.88s14.88-22.771 14.88-35.905v-705.62l6.347-3.574c21.506-12.416 38.901-32.407 48.404-55.349s11.192-49.217 4.761-73.199c-6.431-23.984-20.967-45.985-40.666-61.099-19.704-15.114-44.817-23.608-69.632-23.608-24.834 0-49.927 8.494-69.632 23.608s-34.242 37.117-40.666 61.099c-6.431 23.984-4.742 50.257 4.761 73.199s26.896 42.931 48.404 55.349l6.347 3.574v705.62c0 13.134 5.592 26.617 14.88 35.905s22.771 14.88 35.905 14.88zM513.021 960c-20.104 0-39.745-8.004-53.958-22.219s-22.219-33.853-22.219-53.958v-691.744c-23.374-15.306-42.055-37.231-52.771-63.087-11.692-28.237-13.865-59.952-5.955-89.444 7.91-29.518 25.52-56.186 49.794-74.785 24.25-18.6 54.542-28.763 85.101-28.763 30.508 0 60.681 10.227 84.904 28.763h0.197c24.25 18.6 41.884 45.267 49.794 74.785s5.745 61.233-5.955 89.444v0.197c-10.722 25.786-29.448 47.61-52.771 62.883v691.744c0 20.104-8.004 39.745-22.219 53.958s-33.853 22.219-53.958 22.219zM493.964 156.969c-37.387-8.946-64.75-42.077-64.75-81.601 0-46.279 37.515-83.794 83.794-83.794s83.794 37.515 83.794 83.794c0 39.524-27.363 72.656-64.179 81.486l-0.571 657.136c0 10.517-8.527 19.044-19.044 19.044s-19.044-8.527-19.044-19.044v-657.020zM351.133 320.232v-142.436l5.358 5.555 63.48 63.48 2.381 2.183-2.381 2.183-63.48 63.48-5.358 5.555zM674.882 320.232l-5.358-5.555-63.48-63.48-2.381-2.183 2.381-2.183 63.48-63.48 5.358-5.555v142.436z" />
<glyph unicode="&#xe612;" glyph-name="coolercooldown" horiz-adv-x="1026" d="M598.288 418.638l-2.823-2.927-33.442-33.442-1.254-1.15 1.254-1.15 33.442-33.442 2.823-2.927v75.037zM427.733 418.638v-75.037l2.823 2.927 33.442 33.442 1.254 1.15-1.254 1.15-33.442 33.442-2.823 2.927zM502.978 332.629c-19.695-4.712-34.111-22.166-34.111-42.989 0-24.38 19.763-44.144 44.144-44.144s44.144 19.763 44.144 44.144c0 20.821-14.415 38.276-33.81 42.928l-0.301 346.186c0 5.54-4.492 10.032-10.032 10.032s-10.032-4.492-10.032-10.032v-346.125zM513.010 755.671c-10.591 0-20.938-4.217-28.425-11.705s-11.705-17.834-11.705-28.425v-364.418c-12.313-8.064-22.155-19.614-27.8-33.235-6.16-14.876-7.304-31.583-3.137-47.12 4.167-15.551 13.444-29.599 26.232-39.398 12.775-9.799 28.733-15.153 44.832-15.153 16.071 0 31.967 5.387 44.729 15.153h0.104c12.775 9.799 22.065 23.847 26.232 39.398s3.027 32.258-3.137 47.12v0.104c-5.648 13.584-15.514 25.082-27.8 33.127v364.418c0 10.591-4.217 20.938-11.705 28.425s-17.834 11.705-28.425 11.705zM513.003 742.291c6.919 0 14.022-2.946 18.915-7.839s7.839-11.996 7.839-18.915v-371.727l3.344-1.883c11.33-6.541 20.494-17.072 25.5-29.159s5.896-25.928 2.508-38.562c-3.388-12.634-11.046-24.225-21.424-32.187-10.381-7.962-23.609-12.437-36.683-12.437-13.082 0-26.303 4.475-36.683 12.437s-18.039 19.554-21.424 32.187c-3.388 12.634-2.498 26.476 2.508 38.562s14.17 22.616 25.5 29.159l3.344 1.883v371.727c0 6.919 2.946 14.022 7.839 18.915s11.996 7.839 18.915 7.839zM256.436 892.779l-2.927-5.017-253.742-439.762 2.927-5.017 253.742-439.762h513.128l2.927 5.017 253.742 439.762-2.927 5.017-253.742 439.762h-513.128zM267.933 872.714h490.126l244.963-424.713-244.963-424.713h-490.126l-244.963 424.713 244.963 424.713z" />
<glyph unicode="&#xe613;" glyph-name="cooleremptyalt" horiz-adv-x="1026" d="M513.691 934.542c65.087-5.889 46.317-78.907 49.072-123.783 0-202.359 0-404.723 0-607.078 112.416-48.531 52.819-234.745-67.032-208.002-111.951 14.79-114.895 168.646-31.111 215.118 0 224.914 0 449.802 0 674.735-0.46 26.352 22.72 49.502 49.072 49.072zM513.691 959.141c-70.277 0.859-78.79-75.056-73.607-128.421 0-204.506 0-409.072 0-613.579-89.249-51.899-76.759-200.028 19.904-236.364 91.47-44.777 206.947 43.526 187.104 143.583 3.632 56.56-70.822 74.606-59.788 127.659-0.945 215.975 1.896 432.074-1.423 647.928-5.993 33.81-37.927 59.781-72.184 59.198z" />
<glyph unicode="&#xe614;" glyph-name="coolerempty" horiz-adv-x="1026" d="M513.017 755.671c-10.591 0-20.938-4.217-28.425-11.705s-11.705-17.834-11.705-28.425v-364.418c-12.313-8.064-22.155-19.614-27.8-33.235-6.16-14.876-7.304-31.583-3.137-47.12 4.167-15.551 13.444-29.599 26.232-39.398 12.775-9.799 28.733-15.153 44.832-15.153 16.071 0 31.967 5.387 44.729 15.153h0.104c12.775 9.799 22.065 23.847 26.232 39.398s3.027 32.258-3.137 47.12v0.104c-5.648 13.584-15.514 25.082-27.8 33.127v364.418c0 10.591-4.217 20.938-11.705 28.425s-17.834 11.705-28.425 11.705zM513.010 742.291c6.919 0 14.022-2.946 18.915-7.839s7.839-11.996 7.839-18.915v-371.727l3.344-1.883c11.33-6.541 20.494-17.072 25.5-29.159s5.896-25.928 2.508-38.562c-3.388-12.634-11.046-24.225-21.424-32.187-10.381-7.962-23.609-12.437-36.683-12.437-13.082 0-26.303 4.475-36.683 12.437s-18.039 19.554-21.424 32.187c-3.388 12.634-2.498 26.476 2.508 38.562s14.17 22.616 25.5 29.159l3.344 1.883v371.727c0 6.919 2.946 14.022 7.839 18.915s11.996 7.839 18.915 7.839zM256.443 892.779l-2.927-5.017-253.742-439.762 2.927-5.017 253.742-439.762h513.128l2.927 5.017 253.742 439.762-2.927 5.017-253.742 439.762h-513.128zM267.94 872.714h490.126l244.963-424.713-244.963-424.713h-490.126l-244.963 424.713 244.963 424.713z" />
<glyph unicode="&#xe615;" glyph-name="coolerhighalt" horiz-adv-x="1026" d="M513.015 915.562c-17.673 0-31.741-14.067-31.741-31.741v-717.707c-18.905-6.621-35.631-18.663-47.216-35.111-13.552-19.234-19.557-43.268-16.861-66.654 2.691-23.387 13.965-45.243 31.544-60.904s40.729-24.402 64.274-24.402c23.545 0 46.695 8.741 64.274 24.402s28.845 37.517 31.544 60.904c2.691 23.387-3.307 47.4-16.861 66.654-11.585 16.448-28.311 28.49-47.216 35.111v717.707c0 17.673-14.067 31.741-31.741 31.741zM513.015 934.606c13.134 0 26.617-5.592 35.905-14.88s14.88-22.771 14.88-35.905v-705.62l6.347-3.574c21.506-12.416 38.901-32.407 48.404-55.349s11.192-49.217 4.761-73.199c-6.431-23.984-20.967-45.985-40.666-61.099-19.704-15.114-44.817-23.608-69.632-23.608-24.834 0-49.927 8.494-69.632 23.608s-34.242 37.117-40.666 61.099c-6.431 23.984-4.742 50.257 4.761 73.199s26.896 42.931 48.404 55.349l6.347 3.574v705.62c0 13.134 5.592 26.617 14.88 35.905s22.771 14.88 35.905 14.88zM513.015 960c-20.104 0-39.745-8.004-53.958-22.219s-22.219-33.853-22.219-53.958v-691.744c-23.374-15.306-42.055-37.231-52.771-63.087-11.692-28.237-13.865-59.952-5.955-89.444 7.91-29.518 25.52-56.186 49.794-74.785 24.25-18.6 54.542-28.763 85.101-28.763 30.508 0 60.681 10.227 84.904 28.763h0.197c24.25 18.6 41.884 45.267 49.794 74.785s5.745 61.233-5.955 89.444v0.197c-10.722 25.786-29.448 47.61-52.771 62.883v691.744c0 20.104-8.004 39.745-22.219 53.958s-33.853 22.219-53.958 22.219z" />
<glyph unicode="&#xe616;" glyph-name="coolerhigh" horiz-adv-x="1026" d="M256.443 892.779l-2.927-5.017-253.742-439.762 2.927-5.017 253.742-439.762h513.128l2.927 5.017 253.742 439.762-2.927 5.017-253.742 439.762h-513.128zM267.94 872.714h490.125l244.963-424.713-244.963-424.713h-490.125l-244.963 424.713 244.963 424.713zM513.004 755.668c-10.591 0-20.938-4.217-28.425-11.705s-11.705-17.834-11.705-28.425v-364.418c-12.313-8.064-22.155-19.614-27.8-33.235-6.16-14.876-7.304-31.583-3.137-47.12 4.167-15.551 13.444-29.599 26.232-39.398 12.775-9.799 28.733-15.153 44.832-15.153 16.071 0 31.967 5.387 44.729 15.153h0.104c12.775 9.799 22.065 23.847 26.232 39.398s3.027 32.258-3.137 47.12v0.104c-5.648 13.584-15.514 25.082-27.8 33.127v364.418c0 10.591-4.217 20.938-11.705 28.425s-17.834 11.705-28.425 11.705zM512.997 742.288c6.919 0 14.022-2.946 18.915-7.839s7.839-11.996 7.839-18.915v-371.727l3.344-1.883c11.33-6.541 20.494-17.072 25.5-29.159s5.896-25.928 2.508-38.562c-3.388-12.634-11.046-24.225-21.424-32.187-10.381-7.962-23.609-12.437-36.683-12.437-13.082 0-26.303 4.475-36.683 12.437s-18.039 19.554-21.424 32.187c-3.388 12.634-2.498 26.476 2.508 38.562s14.17 22.616 25.5 29.159l3.344 1.883v371.727c0 6.919 2.946 14.022 7.839 18.915s11.996 7.839 18.915 7.839zM512.997 732.255c-9.311 0-16.721-7.411-16.721-16.721v-378.095c-9.959-3.488-18.771-9.832-24.874-18.497-7.14-10.132-10.303-22.794-8.882-35.114 1.418-12.32 7.357-23.834 16.617-32.084s21.457-12.855 33.86-12.855c12.404 0 24.6 4.605 33.86 12.855s15.196 19.764 16.617 32.084c1.418 12.32-1.742 24.971-8.882 35.114-6.103 8.665-14.914 15.008-24.874 18.497v378.095c0 9.311-7.411 16.721-16.721 16.721z" />
<glyph unicode="&#xe617;" glyph-name="coolerlowalt" horiz-adv-x="1026" d="M512.419 268.064c-10.259-0.331-18.449-8.726-18.449-19.035 0-0.004 0-0.007 0-0.009v-92.046c-37.387-8.946-64.75-42.077-64.75-81.601 0-46.279 37.515-83.794 83.794-83.794s83.794 37.515 83.794 83.794c0 39.524-27.363 72.656-64.179 81.486l-0.571 92.161c0 0.002 0 0.006 0 0.009 0 10.517-8.527 19.044-19.044 19.044-0.21 0-0.418-0.004-0.625-0.009zM513.015 934.606c13.134 0 26.617-5.592 35.905-14.88 9.293-9.288 14.88-22.771 14.88-35.905v-705.62l6.347-3.574c21.506-12.416 38.901-32.407 48.404-55.349s11.192-49.217 4.761-73.199c-6.431-23.984-20.967-45.985-40.666-61.099-19.704-15.114-44.817-23.608-69.632-23.608-24.834 0-49.927 8.494-69.632 23.608s-34.242 37.117-40.666 61.099c-6.431 23.984-4.742 50.257 4.761 73.199s26.896 42.931 48.404 55.349l6.347 3.574v705.62c0 13.134 5.592 26.617 14.88 35.905 9.306 9.288 22.764 14.88 35.905 14.88zM513.015 960c-20.104 0-39.745-8.004-53.958-22.219s-22.219-33.853-22.219-53.958v-691.744c-23.374-15.306-42.055-37.231-52.771-63.087-11.692-28.237-13.865-59.952-5.955-89.444 7.91-29.518 25.52-56.186 49.794-74.785 24.25-18.6 54.542-28.763 85.101-28.763 30.508 0 60.681 10.227 84.904 28.763h0.197c24.25 18.6 41.884 45.267 49.794 74.785s5.745 61.233-5.955 89.444v0.197c-10.722 25.786-29.448 47.61-52.771 62.883v691.75c0 20.104-8.004 39.745-22.219 53.958-14.207 14.22-33.822 22.219-53.946 22.219z" />
<glyph unicode="&#xe618;" glyph-name="coolerlow" horiz-adv-x="1026" d="M256.443 892.779l-2.927-5.017-253.742-439.762 2.927-5.017 253.742-439.762h513.128l2.927 5.017 253.742 439.762-2.927 5.017-253.742 439.762h-513.128zM267.94 872.714h490.125l244.963-424.713-244.963-424.713h-490.125l-244.963 424.713 244.963 424.713zM513.004 755.668c-10.591 0-20.938-4.217-28.425-11.705s-11.705-17.834-11.705-28.425v-364.418c-12.313-8.064-22.155-19.614-27.8-33.235-6.16-14.876-7.304-31.583-3.137-47.12 4.167-15.551 13.444-29.599 26.232-39.398 12.775-9.799 28.733-15.153 44.832-15.153 16.071 0 31.967 5.387 44.729 15.153h0.104c12.775 9.799 22.065 23.847 26.232 39.398s3.027 32.258-3.137 47.12v0.104c-5.648 13.584-15.514 25.082-27.8 33.127v364.418c0 10.591-4.217 20.938-11.705 28.425s-17.834 11.705-28.425 11.705zM512.997 742.288c6.919 0 14.022-2.946 18.915-7.839s7.839-11.996 7.839-18.915v-371.727l3.344-1.883c11.33-6.541 20.494-17.072 25.5-29.159s5.896-25.928 2.508-38.562c-3.388-12.634-11.046-24.225-21.424-32.187-10.381-7.962-23.609-12.437-36.683-12.437-13.082 0-26.303 4.475-36.683 12.437s-18.039 19.554-21.424 32.187c-3.388 12.634-2.498 26.476 2.508 38.562s14.17 22.616 25.5 29.159l3.344 1.883v371.727c0 6.919 2.946 14.022 7.839 18.915s11.996 7.839 18.915 7.839zM512.683 391.146c-5.405-0.175-9.719-4.597-9.719-10.028 0-0.002 0-0.004 0-0.005v-48.49c-19.695-4.712-34.111-22.166-34.111-42.989 0-24.38 19.763-44.144 44.144-44.144s44.144 19.763 44.144 44.144c0 20.821-14.415 38.276-33.81 42.928l-0.301 48.551c0 0.001 0 0.003 0 0.005 0 5.54-4.492 10.032-10.032 10.032-0.111 0-0.22-0.002-0.329-0.005z" />
<glyph unicode="&#xe619;" glyph-name="cooler" horiz-adv-x="1026" d="M256.443 892.779l-2.927-5.017-253.742-439.762 2.927-5.017 253.742-439.762h513.128l2.927 5.017 253.742 439.762-2.927 5.017-253.742 439.762h-513.128zM267.94 872.714h490.125l244.963-424.713-244.963-424.713h-490.125l-244.963 424.713 244.963 424.713zM513.004 755.668c-10.591 0-20.938-4.217-28.425-11.705s-11.705-17.834-11.705-28.425v-364.418c-12.313-8.064-22.155-19.614-27.8-33.235-6.16-14.876-7.304-31.583-3.137-47.12 4.167-15.551 13.444-29.599 26.232-39.398 12.775-9.799 28.733-15.153 44.832-15.153 16.071 0 31.967 5.387 44.729 15.153h0.104c12.775 9.799 22.065 23.847 26.232 39.398s3.027 32.258-3.137 47.12v0.104c-5.648 13.584-15.514 25.082-27.8 33.127v364.418c0 10.591-4.217 20.938-11.705 28.425s-17.834 11.705-28.425 11.705zM512.997 742.288c6.919 0 14.022-2.946 18.915-7.839s7.839-11.996 7.839-18.915v-371.727l3.344-1.883c11.33-6.541 20.494-17.072 25.5-29.159s5.896-25.928 2.508-38.562c-3.388-12.634-11.046-24.225-21.424-32.187-10.381-7.962-23.609-12.437-36.683-12.437-13.082 0-26.303 4.475-36.683 12.437s-18.039 19.554-21.424 32.187c-3.388 12.634-2.498 26.476 2.508 38.562s14.17 22.616 25.5 29.159l3.344 1.883v371.727c0 6.919 2.946 14.022 7.839 18.915s11.996 7.839 18.915 7.839zM512.683 521.57c-5.405-0.175-9.719-4.597-9.719-10.028 0-0.002 0-0.004 0-0.005v-178.914c-19.695-4.712-34.111-22.166-34.111-42.989 0-24.38 19.763-44.144 44.144-44.144s44.144 19.763 44.144 44.144c0 20.821-14.415 38.276-33.81 42.928l-0.301 178.975c0 0.001 0 0.003 0 0.005 0 5.54-4.492 10.032-10.032 10.032-0.111 0-0.22-0.002-0.329-0.005z" />
<glyph unicode="&#xe61a;" glyph-name="coolerwarmupalt" horiz-adv-x="1026" d="M512.412 268.064c-10.259-0.331-18.449-8.726-18.449-19.035 0-0.004 0-0.007 0-0.009v-92.046c-37.387-8.946-64.75-42.077-64.75-81.601 0-46.279 37.515-83.794 83.794-83.794s83.794 37.515 83.794 83.794c0 39.524-27.363 72.656-64.179 81.486l-0.571 92.161c0 0.002 0 0.006 0 0.009 0 10.517-8.527 19.044-19.044 19.044-0.21 0-0.418-0.004-0.625-0.009zM674.882 891.562l-5.358-5.555-63.48-63.48-2.381-2.183 2.381-2.183 63.48-63.48 5.358-5.555v142.436zM351.133 891.562v-142.436l5.358 5.555 63.48 63.48 2.381 2.183-2.381 2.183-63.48 63.48-5.358 5.555zM513.008 934.606c13.134 0 26.617-5.592 35.905-14.88 9.293-9.288 14.88-22.771 14.88-35.905v-705.62l6.347-3.574c21.506-12.416 38.901-32.407 48.404-55.349s11.192-49.217 4.761-73.199c-6.431-23.984-20.967-45.985-40.666-61.099-19.704-15.114-44.817-23.608-69.632-23.608-24.834 0-49.927 8.494-69.632 23.608s-34.242 37.117-40.666 61.099c-6.431 23.984-4.742 50.257 4.761 73.199s26.896 42.931 48.404 55.349l6.347 3.574v705.62c0 13.134 5.592 26.617 14.88 35.905 9.306 9.288 22.764 14.88 35.905 14.88zM513.008 960c-20.104 0-39.745-8.004-53.958-22.219s-22.219-33.853-22.219-53.958v-691.744c-23.374-15.306-42.055-37.231-52.771-63.087-11.692-28.237-13.865-59.952-5.955-89.444 7.91-29.518 25.52-56.186 49.794-74.785 24.25-18.6 54.542-28.763 85.101-28.763 30.508 0 60.681 10.227 84.904 28.763h0.197c24.25 18.6 41.884 45.267 49.794 74.785s5.745 61.233-5.955 89.444v0.197c-10.722 25.786-29.448 47.61-52.771 62.883v691.75c0 20.104-8.004 39.745-22.219 53.958-14.207 14.22-33.822 22.219-53.946 22.219z" />
<glyph unicode="&#xe61b;" glyph-name="coolerwarmup" horiz-adv-x="1026" d="M256.443 892.779l-2.927-5.017-253.742-439.762 2.927-5.017 253.742-439.762h513.128l2.927 5.017 253.742 439.762-2.927 5.017-253.742 439.762h-513.128zM267.94 872.714h490.125l244.963-424.713-244.963-424.713h-490.125l-244.963 424.713 244.963 424.713zM513.004 755.668c-10.591 0-20.938-4.217-28.425-11.705s-11.705-17.834-11.705-28.425v-364.418c-12.313-8.064-22.155-19.614-27.8-33.235-6.16-14.876-7.304-31.583-3.137-47.12 4.167-15.551 13.444-29.599 26.232-39.398 12.775-9.799 28.733-15.153 44.832-15.153 16.071 0 31.967 5.387 44.729 15.153h0.104c12.775 9.799 22.065 23.847 26.232 39.398s3.027 32.258-3.137 47.12v0.104c-5.648 13.584-15.514 25.082-27.8 33.127v364.418c0 10.591-4.217 20.938-11.705 28.425s-17.834 11.705-28.425 11.705zM512.997 742.288c6.919 0 14.022-2.946 18.915-7.839s7.839-11.996 7.839-18.915v-371.727l3.344-1.883c11.33-6.541 20.494-17.072 25.5-29.159s5.896-25.928 2.508-38.562c-3.388-12.634-11.046-24.225-21.424-32.187-10.381-7.962-23.609-12.437-36.683-12.437-13.082 0-26.303 4.475-36.683 12.437s-18.039 19.554-21.424 32.187c-3.388 12.634-2.498 26.476 2.508 38.562s14.17 22.616 25.5 29.159l3.344 1.883v371.727c0 6.919 2.946 14.022 7.839 18.915s11.996 7.839 18.915 7.839zM427.72 719.61v-75.037l2.823 2.927 33.442 33.442 1.254 1.15-1.254 1.15-33.442 33.442-2.823 2.927zM598.273 719.61l-2.823-2.927-33.442-33.442-1.254-1.15 1.254-1.15 33.442-33.442 2.823-2.927v75.037zM512.683 391.147c-5.405-0.175-9.719-4.597-9.719-10.028 0-0.002 0-0.004 0-0.005v-48.49c-19.695-4.712-34.111-22.166-34.111-42.989 0-24.38 19.763-44.144 44.144-44.144s44.144 19.763 44.144 44.144c0 20.821-14.415 38.276-33.81 42.928l-0.301 48.551c0 0.001 0 0.003 0 0.005 0 5.54-4.492 10.032-10.032 10.032-0.111 0-0.22-0.002-0.329-0.005z" />
<glyph unicode="&#xe61c;" glyph-name="domealt" horiz-adv-x="1026" d="M90.319 200.438v-12.077h845.337v12.077h-845.337zM512.988 707.639c-134.747 0-267.549-55.104-362.83-150.384s-150.384-228.108-150.384-362.83h60.38c0 118.179 49.084 236.635 132.652 320.201 83.561 83.561 202.036 132.652 320.201 132.652 118.179 0 236.635-49.084 320.201-132.652 83.561-83.561 132.652-202.036 132.652-320.201h60.38c0 134.747-55.104 267.549-150.384 362.83s-228.108 150.384-362.83 150.384z" />
<glyph unicode="&#xe61d;" glyph-name="domebaaderalt" horiz-adv-x="1026" d="M492.431 956.933c-22.101-1.012-44.246-3.469-66.366-7.508-176.971-32.336-345.241-170.023-361.45-475.518l31.66-1.825c15.625 294.585 170.348 415.9 335.473 446.099 82.569 15.086 168.015 6.416 238.87-17.249 70.86-23.665 126.543-62.69 150.8-104.105l27.4 16.036c-30.303 51.773-92.149 92.973-168.042 118.322-56.923 19.009-122.036 28.816-188.338 25.777zM622.123 864.414c-182.361-11.144-405.314-122.523-555.462-383.557l27.602-15.834c145.332 252.651 358.815 357.321 529.876 367.744 85.537 5.228 160.254-13.391 210.028-47.494 49.792-34.095 75.271-81.7 66.977-141.863l31.458-4.467c9.884 71.698-23.108 133.161-80.57 172.509-57.462 39.356-138.753 58.514-229.939 52.968zM629.397 842.905c-187.687 0.592-412.133-121.048-562.348-361.45l26.991-16.846c145.241 232.382 361.652 346.994 535.396 346.41 86.862-0.272 162.49-28.654 215.549-84.816 53.040-56.183 84.27-140.844 78.713-256.938l31.862-1.623c5.839 122.582-27.712 216.976-87.472 280.296-59.76 63.294-144.824 94.687-238.668 94.98zM81.875 488.78l-2.844-31.66c148.949-13.749 369.413-16.97 550.397-15.834 90.492 0.571 171.061 2.123 227.692 4.26 28.323 1.071 50.637 2.22 65.529 3.448 7.456 0.616 12.833 1.189 17.249 2.032 2.209 0.422 3.221-0.304 8.729 3.248 1.378 0.89 3.482 2.196 5.482 5.683s2.618 10.156 0.812 14.411c-3.611 8.507-7.533 8.208-9.338 8.929-13.151-1.52-2.104-0.358-11.566-1.012-1.819-0.344-7.026-0.845-14.002-1.423-13.956-1.149-36.057-2.39-64.133-3.448-56.151-2.123-136.277-3.897-226.491-4.467-180.426-1.136-401.008 2.306-547.54 15.834zM189.207 477.414l-26.386-17.86c103.261-152.539 289.441-250.872 452.399-263.224 81.466-6.176 157.878 9.449 214.314 53.175s90.882 115.567 89.706 214.704l-31.862-0.409c1.090-91.765-29.055-151.753-77.322-189.116-48.266-37.395-116.457-52.41-192.396-46.682-151.877 11.515-331.668 106.468-428.427 249.449zM167.517 475.629l-28.614-14.209c84.816-169.568 275.778-290.896 448.892-310.918 86.571-10.014 169.633 5.683 231.362 56.423 61.709 50.74 100.053 135.647 100.053 257.139h-31.862c0-114.912-34.919-188.726-88.285-232.584-53.364-43.875-127.122-58.839-207.619-49.52-160.989 18.619-345.112 135.94-423.952 293.676zM91.993 470.764c-18.56-125.263-13.8-298.391-13.8-375.050h31.862c0 77.906-4.416 250.364 13.398 370.569l-31.458 4.467zM136.843 472.174l-30.848-7.306c58.775-246.916 301.34-403.236 508.574-433.11 103.632-14.93 200.183 1.324 260.555 58.839 60.403 57.527 79.588 154.592 34.095 287.57l-30.037-10.352c43.156-126.14 24.147-206.352-25.977-254.061-50.123-47.739-136.447-64.587-233.992-50.532-195.092 28.1-427.544 178.497-482.402 408.944zM891.978 168.555v-72.86h31.66v72.86h-31.66zM918.767 107.261l-21.919-23.14c11.736-10.969 17.613-20.36 19.483-26.991 1.87-6.636 1.085-10.799-2.637-16.644-7.449-11.69-32.004-26.763-69.203-38.154-74.407-22.777-195.221-34.459-317.822-33.894-122.574 0.565-247.696 13.216-331.213 36.531-41.765 11.658-72.932 26.628-87.063 40.589-7.066 6.981-9.747 12.82-10.151 18.471-0.403 5.643 1.311 12.586 8.528 22.12l-25.366 19.080c-10.404-13.762-16.079-28.563-15.021-43.434 1.058-14.865 8.625-28.245 19.483-38.966 21.717-21.45 56.813-36.154 101.073-48.506 88.511-24.704 214.899-37.174 339.526-37.752 124.627-0.571 246.774 10.643 327.381 35.317 40.291 12.333 71.041 27.050 86.662 51.552 7.807 12.249 10.619 27.796 6.494 42.414s-13.808 27.939-28.212 41.402z" />
<glyph unicode="&#xe61e;" glyph-name="domebaader" horiz-adv-x="1026" d="M719.327 280.345l-11.286-11.916c6.043-5.648 9.069-10.484 10.032-13.899 0.963-3.418 0.559-5.561-1.358-8.571-3.836-6.019-16.481-13.781-35.636-19.647-38.315-11.729-100.527-17.744-163.658-17.453-63.119 0.291-127.548 6.805-170.554 18.811-21.506 6.003-37.556 13.712-44.832 20.901-3.639 3.595-5.020 6.601-5.227 9.512-0.208 2.905 0.675 6.481 4.391 11.39l-13.062 9.825c-5.357-7.086-8.28-14.708-7.735-22.365 0.545-7.655 4.442-14.544 10.032-20.065 11.183-11.046 29.256-18.617 52.047-24.978 45.578-12.721 110.659-19.143 174.835-19.44 64.176-0.294 127.073 5.48 168.581 18.186 20.747 6.351 36.581 13.929 44.626 26.546 4.020 6.307 5.468 14.313 3.344 21.841s-7.11 14.387-14.527 21.319zM705.542 311.904v-37.518h16.303v37.518h-16.303zM316.679 468.246l-15.885-3.762c30.265-127.147 155.172-207.642 261.884-223.025 53.363-7.688 103.083 0.682 134.169 30.299 31.104 29.623 40.983 79.605 17.557 148.081l-15.467-5.331c22.223-64.954 12.434-106.259-13.376-130.825-25.811-24.583-70.261-33.259-120.491-26.021-100.46 14.47-220.159 91.914-248.407 210.581zM293.566 467.51c-9.557-64.502-7.106-153.653-7.106-193.127h16.407c0 40.117-2.274 128.922 6.899 190.82l-16.199 2.3zM332.443 470.011l-14.734-7.317c43.675-87.317 142.009-149.793 231.152-160.103 44.578-5.156 87.351 2.927 119.137 29.055 31.776 26.128 51.521 69.85 51.521 132.411h-16.407c0-59.173-17.981-97.182-45.462-119.766-27.479-22.593-65.46-30.299-106.911-25.5-82.899 9.587-177.712 70.001-218.309 151.225zM343.613 470.954l-13.587-9.196c53.172-78.548 149.044-129.183 232.957-135.544 41.95-3.18 81.297 4.865 110.359 27.382s46.799 59.51 46.193 110.56l-16.407-0.21c0.562-47.253-14.962-78.143-39.816-97.383-24.855-19.256-59.969-26.988-99.071-24.038-78.207 5.929-170.788 54.825-220.613 128.45zM288.344 476.827l-1.464-16.303c76.699-7.079 190.225-8.739 283.421-8.153 46.597 0.294 88.086 1.093 117.247 2.194 14.585 0.552 26.075 1.143 33.744 1.776 3.839 0.317 6.608 0.612 8.882 1.046 1.138 0.217 1.658-0.157 4.495 1.673 0.709 0.459 1.793 1.131 2.823 2.927s1.348 5.23 0.418 7.421c-1.859 4.381-3.879 4.226-4.808 4.598-6.772-0.783-1.083-0.184-5.955-0.521-0.937-0.177-3.618-0.435-7.21-0.733-7.186-0.592-18.568-1.231-33.024-1.776-28.914-1.093-70.175-2.006-116.629-2.3-92.908-0.585-206.494 1.187-281.949 8.153zM570.279 659.186c-96.647 0.305-212.223-62.332-289.574-186.124l13.899-8.675c74.79 119.662 186.228 178.68 275.696 178.38 44.729-0.14 83.672-14.755 110.994-43.675 27.312-28.931 43.394-72.526 40.532-132.307l16.407-0.836c3.007 63.122-14.27 111.729-45.043 144.335-30.773 32.593-74.576 48.758-122.899 48.909zM566.528 670.272c-93.904-5.738-208.712-63.091-286.029-197.508l14.213-8.153c74.837 130.1 184.768 183.999 272.853 189.365 44.047 2.692 82.521-6.895 108.152-24.456 25.64-17.557 38.759-42.070 34.49-73.051l16.199-2.3c5.089 36.92-11.899 68.57-41.488 88.832-29.589 20.266-71.449 30.131-118.404 27.275zM499.73 717.93c-11.38-0.521-22.784-1.786-34.174-3.867-91.129-16.651-177.777-87.551-186.124-244.862l16.303-0.94c8.045 151.693 87.718 214.163 172.748 229.713 42.518 7.768 86.518 3.304 123.003-8.882 36.488-12.186 65.162-32.281 77.653-53.608l14.109 8.258c-15.605 26.659-47.451 47.875-86.531 60.929-29.312 9.789-62.841 14.839-96.983 13.273zM256.443 892.779l-2.927-5.017-253.742-439.762 2.927-5.017 253.742-439.762h513.128l2.927 5.017 253.742 439.762-2.927 5.017-253.742 439.762h-513.128zM267.94 872.713h490.126l244.963-424.713-244.963-424.713h-490.126l-244.963 424.713 244.963 424.713z" />
<glyph unicode="&#xe61f;" glyph-name="domeclamshellalt" horiz-adv-x="1026" d="M138.826 545.835c-88.514-94.268-139.051-222.012-139.051-351.342h60.378c0 113.462 44.976 227.289 122.647 309.984l-43.96 41.324zM501.291 707.498c-129.281-2.94-255.703-56.345-347.9-146.985l42.264-43.020c80.926 79.525 193.573 127.037 306.989 129.627l-1.323 60.378zM887.175 545.797l-43.96-41.324c77.665-82.712 122.641-196.544 122.647-309.984h60.378c0 129.312-50.542 257.055-139.051 351.342zM524.736 707.534l-1.323-60.378c113.432-2.578 226.057-50.102 306.989-129.627l42.264 43.020c-92.234 90.628-218.631 144.045-347.9 146.985zM90.415 200.542v-12.076h845.299v12.076h-845.299z" />
<glyph unicode="&#xe620;" glyph-name="domeclamshellopenalt" horiz-adv-x="1026" d="M60.179 612.143l-60.404-1.89c4.072-129.308 58.78-255.269 150.257-346.782l42.645 42.645c-80.264 80.264-128.939 192.534-132.516 305.986zM132.647 614.553l-60.404-1.89c3.491-111.109 50.316-219.448 128.927-298.036l42.645 42.645c-67.394 67.387-108.191 162.028-111.18 257.288zM965.853 612.108c-3.57-113.458-52.249-225.731-132.516-305.986l42.645-42.645c91.453 91.453 146.179 217.456 150.257 346.782l-60.404 1.89zM893.351 614.603c-2.996-95.257-43.794-189.893-111.18-257.288l42.645-42.645c78.586 78.586 125.435 186.945 128.927 298.036l-60.404 1.89zM90.139 632.529v-12.082h845.664v12.082h-845.664z" />
<glyph unicode="&#xe621;" glyph-name="domeclamshellopenleftalt" horiz-adv-x="1026" d="M60.166 358.546l-60.392-1.889c4.071-129.28 58.767-255.216 150.226-346.71l42.637 42.637c-80.248 80.248-128.913 192.494-132.489 305.923zM132.619 360.956l-60.392-1.889c3.491-111.085 50.307-219.404 128.9-297.974l42.637 42.637c-67.38 67.373-108.168 161.995-111.158 257.234zM887.144 724.281l-43.97-41.332c77.683-82.731 122.668-196.589 122.674-310.054h60.392c0 129.341-50.554 257.112-139.083 351.421zM524.622 886.053l-1.324-60.392c113.458-2.578 226.107-50.114 307.058-129.656l42.274 43.029c-92.255 90.648-218.679 144.078-347.978 147.018zM90.205 378.948v-12.079h845.488v12.079h-845.488z" />
<glyph unicode="&#xe622;" glyph-name="domeclamshellopenlefthalfalt" horiz-adv-x="1026" d="M138.826 725.868c-88.514-94.268-139.051-222.012-139.051-351.342h60.378c0 113.462 44.976 227.289 122.647 309.984l-43.96 41.324zM60.534 356.376l-60.378-2.452c5.191-129.21 60.983-254.858 153.21-345.486l42.264 43.020c-80.926 79.529-130.537 191.538-135.096 304.911zM887.175 725.826l-43.96-41.324c77.665-82.712 122.641-196.544 122.647-309.984h60.378c0 129.312-50.542 257.055-139.051 351.342zM524.736 887.561l-1.323-60.378c113.432-2.578 226.057-50.102 306.989-129.627l42.264 43.020c-92.234 90.628-218.631 144.045-347.9 146.985zM90.415 389.62v-30.189h845.299v30.189h-845.299z" />
<glyph unicode="&#xe623;" glyph-name="domeclamshellopenlefthalf" horiz-adv-x="1026" d="M278.895 356.041v-16.721h468.189v16.721h-468.189zM519.471 631.838l-0.733-33.442c62.828-1.428 125.206-27.75 170.033-71.797l23.409 23.828c-51.085 50.196-121.093 79.782-192.693 81.411zM720.239 542.276l-24.348-22.888c43.017-45.812 67.928-108.861 67.931-171.692h33.442c0 71.623-27.994 142.375-77.017 194.599zM262.392 337.664l-33.442-1.358c2.875-71.565 33.777-141.159 84.858-191.355l23.409 23.828c-44.823 44.050-72.301 106.088-74.826 168.882zM305.763 542.293c-49.026-52.212-77.017-122.966-77.017-194.599h33.442c0 62.844 24.911 125.89 67.931 171.692l-24.348 22.888zM256.443 892.779l-2.927-5.017-253.742-439.762 2.927-5.017 253.742-439.762h513.128l2.927 5.017 253.742 439.762-2.927 5.017-253.742 439.762h-513.128zM267.939 872.714h490.125l244.963-424.713-244.963-424.713h-490.125l-244.963 424.713 244.963 424.713z" />
<glyph unicode="&#xe624;" glyph-name="domeclamshellopenleft" horiz-adv-x="1026" d="M278.916 351.045v-6.689h468.189v6.689h-468.189zM519.492 631.855l-0.733-33.442c62.828-1.428 125.206-27.75 170.033-71.797l23.409 23.828c-51.085 50.196-121.093 79.782-192.693 81.411zM720.26 542.293l-24.348-22.888c43.017-45.812 67.928-108.861 67.931-171.692h33.442c0 71.623-27.994 142.375-77.017 194.599zM302.443 341.126l-33.442-1.046c1.933-61.514 27.857-121.494 71.378-165.003l23.609 23.609c-37.312 37.308-59.898 89.704-61.553 142.443zM262.305 339.772l-33.442-1.046c2.255-71.589 32.542-141.325 83.187-191.99l23.609 23.609c-44.438 44.438-71.385 106.593-73.365 169.404zM256.443 892.779l-2.927-5.017-253.742-439.762 2.927-5.017 253.742-439.762h513.128l2.927 5.017 253.742 439.762-2.927 5.017-253.742 439.762h-513.128zM267.94 872.714h490.125l244.963-424.713-244.963-424.713h-490.125l-244.963 424.713 244.963 424.713z" />
<glyph unicode="&#xe625;" glyph-name="domeclamshellopenrightalt" horiz-adv-x="1026" d="M138.855 724.307c-88.532-94.288-139.080-222.056-139.080-351.414h60.391c0 113.486 44.986 227.336 122.672 310.047l-43.97 41.331zM501.394 886.004c-129.309-2.94-255.755-56.356-347.972-147.015l42.273-43.029c80.942 79.541 193.612 127.064 307.052 129.654l-1.324 60.391zM965.867 358.549c-3.569-113.433-52.238-225.68-132.486-305.917l42.636-42.636c91.432 91.432 146.146 217.407 150.223 346.703l-60.391 1.889zM893.378 361.043c-2.996-95.236-43.784-189.851-111.156-257.229l42.636-42.636c78.567 78.567 125.407 186.903 128.898 297.968l-60.391 1.889zM90.35 378.968v-12.079h845.473v12.079h-845.473z" />
<glyph unicode="&#xe626;" glyph-name="domeclamshellopenrighthalfalt" horiz-adv-x="1026" d="M138.826 725.863c-88.514-94.268-139.051-222.012-139.051-351.342h60.378c0 113.462 44.976 227.289 122.647 309.984l-43.96 41.324zM501.291 887.525c-129.281-2.94-255.703-56.345-347.9-146.985l42.264-43.020c80.926 79.525 193.573 127.037 306.989 129.627l-1.323 60.378zM887.175 725.825l-43.96-41.324c77.665-82.712 122.641-196.544 122.647-309.984h60.378c0 129.312-50.542 257.055-139.051 351.342zM965.493 356.406c-4.558-113.372-54.17-225.393-135.096-304.911l42.264-43.020c92.234 90.628 148.018 216.269 153.21 345.486l-60.378 2.452zM90.366 380.564v-12.076h845.299v12.076h-845.299z" />
<glyph unicode="&#xe627;" glyph-name="domeclamshellopenrighthalf" horiz-adv-x="1026" d="M278.868 351.015v-6.689h468.189v6.689h-468.189zM763.577 337.638c-2.524-62.794-30.003-124.84-74.826-168.882l23.409-23.828c51.085 50.196 81.983 119.786 84.858 191.355l-33.442 1.358zM720.205 542.273l-24.348-22.888c43.017-45.812 67.928-108.861 67.931-171.692h33.442c0 71.623-27.994 142.375-77.017 194.599zM506.498 631.854c-71.606-1.628-141.628-31.208-192.693-81.411l23.409-23.828c44.823 44.047 107.215 70.363 170.033 71.797l-0.733 33.442zM305.762 542.293c-49.026-52.212-77.017-122.966-77.017-194.599h33.442c0 62.844 24.911 125.89 67.931 171.692l-24.348 22.888zM256.443 892.779l-2.927-5.017-253.742-439.762 2.927-5.017 253.742-439.762h513.128l2.927 5.017 253.742 439.762-2.927 5.017-253.742 439.762h-513.128zM267.939 872.714h490.125l244.963-424.713-244.963-424.713h-490.125l-244.963 424.713 244.963 424.713z" />
<glyph unicode="&#xe628;" glyph-name="domeclamshellopenright" horiz-adv-x="1026" d="M278.895 351.038v-6.689h468.189v6.689h-468.189zM723.574 341.109c-1.658-52.738-24.246-105.132-61.553-142.443l23.609-23.609c43.508 43.508 69.445 103.5 71.378 165.003l-33.442 1.046zM763.697 339.749c-1.976-62.814-28.927-124.973-73.365-169.404l23.609-23.609c50.632 50.632 80.93 120.391 83.187 191.99l-33.442 1.046zM506.498 631.854c-71.606-1.628-141.628-31.208-192.693-81.411l23.409-23.828c44.823 44.047 107.215 70.363 170.033 71.797l-0.733 33.442zM305.763 542.293c-49.026-52.212-77.017-122.966-77.017-194.599h33.442c0 62.844 24.911 125.89 67.931 171.692l-24.348 22.888zM256.443 892.779l-2.927-5.017-253.742-439.762 2.927-5.017 253.742-439.762h513.128l2.927 5.017 253.742 439.762-2.927 5.017-253.742 439.762h-513.128zM267.939 872.714h490.125l244.963-424.713-244.963-424.713h-490.125l-244.963 424.713 244.963 424.713z" />
<glyph unicode="&#xe629;" glyph-name="domeclamshellopen" horiz-adv-x="1026" d="M278.949 351.035v-6.689h468.189v6.689h-468.189zM723.627 341.106c-1.658-52.738-24.246-105.132-61.553-142.443l23.609-23.609c43.508 43.508 69.445 103.5 71.378 165.003l-33.442 1.046zM763.751 339.746c-1.976-62.814-28.927-124.973-73.365-169.404l23.609-23.609c50.632 50.632 80.93 120.391 83.187 191.99l-33.442 1.046zM302.442 341.128l-33.442-1.046c1.933-61.514 27.857-121.494 71.378-165.003l23.609 23.609c-37.312 37.308-59.898 89.704-61.553 142.443zM262.304 339.772l-33.442-1.046c2.255-71.589 32.542-141.325 83.187-191.99l23.609 23.609c-44.438 44.438-71.385 106.593-73.365 169.404zM256.443 892.779l-2.927-5.017-253.742-439.762 2.927-5.017 253.742-439.762h513.128l2.927 5.017 253.742 439.762-2.927 5.017-253.742 439.762h-513.128zM267.94 872.714h490.125l244.963-424.713-244.963-424.713h-490.125l-244.963 424.713 244.963 424.713z" />
<glyph unicode="&#xe62a;" glyph-name="domeclamshell" horiz-adv-x="1026" d="M278.862 351.024v-6.689h468.189v6.689h-468.189zM519.438 631.835l-0.733-33.442c62.828-1.428 125.206-27.75 170.033-71.797l23.409 23.828c-51.085 50.196-121.093 79.782-192.693 81.411zM720.206 542.273l-24.348-22.888c43.017-45.812 67.928-108.861 67.931-171.692h33.442c0 71.623-27.994 142.375-77.017 194.599zM506.499 631.854c-71.606-1.628-141.628-31.208-192.693-81.411l23.409-23.828c44.823 44.047 107.215 70.363 170.033 71.797l-0.733 33.442zM305.763 542.293c-49.026-52.212-77.017-122.966-77.017-194.599h33.442c0 62.844 24.911 125.89 67.931 171.692l-24.348 22.888zM256.443 892.779l-2.927-5.017-253.742-439.762 2.927-5.017 253.742-439.762h513.128l2.927 5.017 253.742 439.762-2.927 5.017-253.742 439.762h-513.128zM267.939 872.714h490.126l244.963-424.713-244.963-424.713h-490.126l-244.963 424.713 244.963 424.713z" />
<glyph unicode="&#xe62b;" glyph-name="dome" horiz-adv-x="1026" d="M278.895 351.018v-6.689h468.189v6.689h-468.189zM512.99 631.932c-74.629 0-148.182-30.519-200.952-83.29s-83.29-126.337-83.29-200.952h33.442c0 65.453 27.185 131.060 73.469 177.343 46.28 46.28 111.897 73.469 177.343 73.469 65.453 0 131.060-27.185 177.343-73.469 46.28-46.28 73.469-111.897 73.469-177.343h33.442c0 74.629-30.519 148.182-83.29 200.952s-126.337 83.29-200.952 83.29zM256.443 892.779l-2.927-5.017-253.742-439.762 2.927-5.017 253.742-439.762h513.128l2.927 5.017 253.742 439.762-2.927 5.017-253.742 439.762h-513.128zM267.939 872.714h490.125l244.963-424.713-244.963-424.713h-490.125l-244.963 424.713 244.963 424.713z" />
<glyph unicode="&#xe62c;" glyph-name="fieldrotatoralt" horiz-adv-x="1026" d="M1.007 658.825h60.235v60.235h-60.235zM1.007 779.294h60.235v60.235h-60.235zM1.007 899.765h60.235v60.235h-60.235zM603.361 899.765h60.235v60.235h-60.235zM482.89 899.765h60.235v60.235h-60.235zM362.419 899.765h60.235v60.235h-60.235zM241.95 899.765h60.235v60.235h-60.235zM121.478 899.765h60.235v60.235h-60.235zM603.361-33.882h60.235v30.118h-60.235zM603.361 56.471h60.235v60.235h-60.235zM603.361 176.942h60.235v60.235h-60.235zM603.361 297.413h60.235v60.235h-60.235zM603.361 417.883h60.235v60.235h-60.235zM603.361 538.354h60.235v60.235h-60.235zM603.361 658.825h60.235v60.235h-60.235zM603.361 779.294h60.235v60.235h-60.235zM603.361 899.765h60.235v60.235h-60.235zM61.244 538.354h903.53v-542.118h-903.53v542.118zM1.007 598.589v-662.589h1024.001v662.589h-1024.001z" />
<glyph unicode="&#xe62d;" glyph-name="fieldrotator" horiz-adv-x="1026" d="M228.749 531.605v-367.862h568.514v367.862h-568.514zM262.193 498.164h501.63v-300.978h-501.63v300.978zM563.17 698.816h33.442v33.442h-33.442zM563.17 631.932h33.442v33.442h-33.442zM563.17 565.048h33.442v33.442h-33.442zM563.17 498.164h33.442v33.442h-33.442zM563.17 431.28h33.442v33.442h-33.442zM563.17 364.397h33.442v33.442h-33.442zM563.17 297.512h33.442v33.442h-33.442zM563.17 230.627h33.442v33.442h-33.442zM563.17 180.465h33.442v16.721h-33.442zM295.634 698.816h33.442v33.442h-33.442zM362.518 698.816h33.442v33.442h-33.442zM429.401 698.816h33.442v33.442h-33.442zM496.286 698.816h33.442v33.442h-33.442zM563.17 698.816h33.442v33.442h-33.442zM228.749 698.816h33.442v33.442h-33.442zM228.749 631.932h33.442v33.442h-33.442zM228.749 565.048h33.442v33.442h-33.442zM256.443 892.779l-2.927-5.017-253.742-439.762 2.927-5.017 253.742-439.762h513.128l2.927 5.017 253.742 439.762-2.927 5.017-253.742 439.762h-513.128zM267.94 872.714h490.126l244.963-424.713-244.963-424.713h-490.126l-244.963 424.713 244.963 424.713z" />
<glyph unicode="&#xe62e;" glyph-name="filterwheelalt" horiz-adv-x="1026" d="M513.007 928.97c265.826 0 480.97-215.153 480.97-480.97 0-265.826-215.153-480.97-480.97-480.97-265.826 0-480.97 215.153-480.97 480.97 0 265.826 215.153 480.97 480.97 480.97zM513.007 960c-282.588 0-512-229.417-512-512 0-282.588 229.417-512 512-512 282.588 0 512 229.417 512 512 0 282.588-229.417 512-512 512zM513.007 846.223c54.453 0 98.262-43.809 98.262-98.262s-43.809-98.262-98.262-98.262c-54.453 0-98.262 43.809-98.262 98.262s43.809 98.262 98.262 98.262zM513.007 877.253c-71.224 0-129.292-58.068-129.292-129.292s58.068-129.292 129.292-129.292c71.224 0 129.292 58.068 129.292 129.292s-58.068 129.292-129.292 129.292zM857.856 647.111c27.224-47.156 11.191-107.003-35.964-134.227s-107.003-11.191-134.227 35.964c-27.224 47.156-11.191 107.003 35.964 134.227s107.003 11.191 134.227-35.964zM884.728 662.626c-35.612 61.683-114.915 82.955-176.614 47.326-61.683-35.612-82.955-114.915-47.326-176.614 35.612-61.683 114.915-82.955 176.614-47.326 61.683 35.612 82.955 114.915 47.326 176.614zM857.856 248.889c-27.224-47.156-87.071-63.194-134.227-35.964-47.156 27.224-63.194 87.071-35.964 134.227 27.224 47.156 87.071 63.194 134.227 35.964 47.156-27.224 63.194-87.071 35.964-134.227zM884.728 233.374c35.612 61.683 14.356 140.98-47.326 176.614-61.683 35.612-140.98 14.356-176.614-47.326-35.612-61.683-14.356-140.98 47.326-176.614 61.683-35.612 140.98-14.356 176.614 47.326zM512.985 49.777c-54.453 0-98.262 43.809-98.262 98.262s43.809 98.262 98.262 98.262c54.453 0 98.262-43.809 98.262-98.262s-43.809-98.262-98.262-98.262zM512.985 18.747c71.224 0 129.292 58.068 129.292 129.292s-58.068 129.292-129.292 129.292c-71.224 0-129.292-58.068-129.292-129.292s58.068-129.292 129.292-129.292zM168.135 248.889c-27.224 47.156-11.191 107.003 35.964 134.227s107.003 11.191 134.227-35.964c27.224-47.156 11.191-107.003-35.964-134.227s-107.003-11.191-134.227 35.964zM141.263 233.374c35.612-61.683 114.915-82.955 176.614-47.326 61.683 35.612 82.955 114.915 47.326 176.614-35.612 61.683-114.915 82.955-176.614 47.326-61.683-35.612-82.955-114.915-47.326-176.614zM168.135 647.111c27.224 47.156 87.071 63.194 134.227 35.964 47.156-27.224 63.194-87.071 35.964-134.227-27.224-47.156-87.071-63.194-134.227-35.964-47.156 27.224-63.194 87.071-35.964 134.227zM141.263 662.626c-35.612-61.683-14.356-140.98 47.326-176.614 61.683-35.612 140.98-14.356 176.614 47.326 35.612 61.683 14.356 140.98-47.326 176.614-61.683 35.612-140.98 14.356-176.614-47.326z" />
<glyph unicode="&#xe62f;" glyph-name="filterwheelselectedalt" horiz-adv-x="1026" d="M513.007 928.97c265.826 0 480.97-215.153 480.97-480.97 0-265.826-215.153-480.97-480.97-480.97-265.826 0-480.97 215.153-480.97 480.97 0 265.826 215.153 480.97 480.97 480.97zM513.007 960c-282.588 0-512-229.417-512-512 0-282.588 229.417-512 512-512 282.588 0 512 229.417 512 512 0 282.588-229.417 512-512 512zM513.007 846.223c54.453 0 98.262-43.809 98.262-98.262s-43.809-98.262-98.262-98.262c-54.453 0-98.262 43.809-98.262 98.262s43.809 98.262 98.262 98.262zM513.007 877.253c-71.224 0-129.292-58.068-129.292-129.292s58.068-129.292 129.292-129.292c71.224 0 129.292 58.068 129.292 129.292s-58.068 129.292-129.292 129.292zM769.332 727.118c-20.842-0.523-41.979-6.005-61.255-17.133-61.683-35.612-82.798-114.967-47.192-176.665 35.612-61.683 114.812-82.955 176.459-47.352 61.683 35.612 82.955 114.967 47.352 176.665-24.483 42.408-69.529 65.635-115.397 64.486zM857.84 248.889c-27.224-47.156-87.071-63.194-134.227-35.964-47.156 27.224-63.194 87.071-35.964 134.227 27.224 47.156 87.071 63.194 134.227 35.964 47.156-27.224 63.194-87.071 35.964-134.227zM884.713 233.374c35.612 61.683 14.356 140.98-47.326 176.614-61.683 35.612-140.98 14.356-176.614-47.326-35.612-61.683-14.356-140.98 47.326-176.614 61.683-35.612 140.98-14.356 176.614 47.326zM512.97 49.777c-54.453 0-98.262 43.809-98.262 98.262s43.809 98.262 98.262 98.262c54.453 0 98.262-43.809 98.262-98.262s-43.809-98.262-98.262-98.262zM512.97 18.747c71.224 0 129.292 58.068 129.292 129.292s-58.068 129.292-129.292 129.292c-71.224 0-129.292-58.068-129.292-129.292s58.068-129.292 129.292-129.292zM168.12 248.889c-27.224 47.156-11.191 107.003 35.964 134.227s107.003 11.191 134.227-35.964c27.224-47.156 11.191-107.003-35.964-134.227s-107.003-11.191-134.227 35.964zM141.247 233.374c35.612-61.683 114.915-82.955 176.614-47.326 61.683 35.612 82.955 114.915 47.326 176.614-35.612 61.683-114.915 82.955-176.614 47.326-61.683-35.612-82.955-114.915-47.326-176.614zM168.12 647.111c27.224 47.156 87.071 63.194 134.227 35.964 47.156-27.224 63.194-87.071 35.964-134.227-27.224-47.156-87.071-63.194-134.227-35.964-47.156 27.224-63.194 87.071-35.964 134.227zM141.247 662.626c-35.612-61.683-14.356-140.98 47.326-176.614 61.683-35.612 140.98-14.356 176.614 47.326 35.612 61.683 14.356 140.98-47.326 176.614-61.683 35.612-140.98 14.356-176.614-47.326z" />
<glyph unicode="&#xe630;" glyph-name="filterwheelselected" horiz-adv-x="1026" d="M272.658 586.785c-23.028-39.886-9.283-91.163 30.603-114.204 39.886-23.028 91.163-9.283 114.204 30.603 23.028 39.886 9.283 91.163-30.603 114.204-39.886 23.028-91.163 9.283-114.204-30.603zM290.035 576.753c17.605 30.493 56.303 40.863 86.796 23.255 30.493-17.605 40.863-56.303 23.255-86.796-17.605-30.493-56.303-40.863-86.796-23.255-30.493 17.605-40.863 56.303-23.255 86.796zM272.658 309.217c23.028-39.886 74.308-53.641 114.204-30.603 39.886 23.028 53.641 74.308 30.603 114.204-23.028 39.886-74.308 53.641-114.204 30.603-39.886-23.028-53.641-74.308-30.603-114.204zM290.035 319.249c-17.605 30.493-7.237 69.191 23.255 86.796s69.191 7.237 86.796-23.255c17.605-30.493 7.237-69.191-23.255-86.796s-69.191-7.237-86.796 23.255zM513.027 170.432c46.056 0 83.604 37.549 83.604 83.604s-37.549 83.604-83.604 83.604c-46.056 0-83.604-37.549-83.604-83.604s37.549-83.604 83.604-83.604zM513.027 190.497c-35.211 0-63.539 28.328-63.539 63.539s28.328 63.539 63.539 63.539c35.211 0 63.539-28.328 63.539-63.539s-28.328-63.539-63.539-63.539zM753.407 309.217c23.028 39.886 9.283 91.163-30.603 114.204-39.886 23.028-91.163 9.283-114.204-30.603-23.028-39.886-9.283-91.163 30.603-114.204 39.886-23.028 91.163-9.283 114.204 30.603zM736.031 319.249c-17.605-30.493-56.303-40.863-86.796-23.255-30.493 17.605-40.863 56.303-23.255 86.796 17.605 30.493 56.303 40.863 86.796 23.255 30.493-17.605 40.863-56.303 23.255-86.796zM678.778 628.488c-13.477-0.338-27.145-3.883-39.609-11.079-39.886-23.028-53.54-74.341-30.516-114.237 23.028-39.886 74.241-53.641 114.104-30.619 39.886 23.028 53.641 74.341 30.619 114.237-15.832 27.422-44.959 42.442-74.619 41.699zM513.010 725.57c-46.056 0-83.604-37.549-83.604-83.604s37.549-83.604 83.604-83.604c46.056 0 83.604 37.549 83.604 83.604s-37.549 83.604-83.604 83.604zM513.010 705.505c35.211 0 63.539-28.328 63.539-63.539s-28.328-63.539-63.539-63.539c-35.211 0-63.539 28.328-63.539 63.539s28.328 63.539 63.539 63.539zM513.010 779.077c-182.73 0-331.076-148.348-331.076-331.076 0-182.73 148.348-331.076 331.076-331.076 182.73 0 331.076 148.348 331.076 331.076 0 182.73-148.348 331.076-331.076 331.076zM513.010 759.012c171.892 0 311.011-139.125 311.011-311.011 0-171.892-139.125-311.011-311.011-311.011-171.892 0-311.011 139.125-311.011 311.011 0 171.892 139.125 311.011 311.011 311.011zM256.443 892.779l-2.927-5.017-253.742-439.762 2.927-5.017 253.742-439.762h513.128l2.927 5.017 253.742 439.762-2.927 5.017-253.742 439.762h-513.128zM267.94 872.714h490.125l244.963-424.713-244.963-424.713h-490.125l-244.963 424.713 244.963 424.713z" />
<glyph unicode="&#xe631;" glyph-name="filterwheel" horiz-adv-x="1026" d="M272.628 586.785c-23.028-39.886-9.283-91.163 30.603-114.204 39.886-23.028 91.163-9.283 114.204 30.603 23.028 39.886 9.283 91.163-30.603 114.204-39.886 23.028-91.163 9.283-114.204-30.603zM290.005 576.753c17.605 30.493 56.303 40.863 86.796 23.255 30.493-17.605 40.863-56.303 23.255-86.796-17.605-30.493-56.303-40.863-86.796-23.255-30.493 17.605-40.863 56.303-23.255 86.796zM272.628 309.217c23.028-39.886 74.308-53.641 114.204-30.603 39.886 23.028 53.641 74.308 30.603 114.204-23.028 39.886-74.308 53.641-114.204 30.603-39.886-23.028-53.641-74.308-30.603-114.204zM290.005 319.249c-17.605 30.493-7.237 69.191 23.255 86.796s69.191 7.237 86.796-23.255c17.605-30.493 7.237-69.191-23.255-86.796s-69.191-7.237-86.796 23.255zM512.997 170.432c46.056 0 83.604 37.549 83.604 83.604s-37.549 83.604-83.604 83.604c-46.056 0-83.604-37.549-83.604-83.604s37.549-83.604 83.604-83.604zM512.997 190.497c-35.211 0-63.539 28.328-63.539 63.539s28.328 63.539 63.539 63.539c35.211 0 63.539-28.328 63.539-63.539s-28.328-63.539-63.539-63.539zM753.377 309.217c23.028 39.886 9.283 91.163-30.603 114.204-39.886 23.028-91.163 9.283-114.204-30.603-23.028-39.886-9.283-91.163 30.603-114.204 39.886-23.028 91.163-9.283 114.204 30.603zM736.001 319.249c-17.605-30.493-56.303-40.863-86.796-23.255-30.493 17.605-40.863 56.303-23.255 86.796 17.605 30.493 56.303 40.863 86.796 23.255 30.493-17.605 40.863-56.303 23.255-86.796zM753.377 586.785c-23.028 39.886-74.308 53.641-114.204 30.603-39.886-23.028-53.641-74.308-30.603-114.204 23.028-39.886 74.308-53.641 114.204-30.603 39.886 23.028 53.641 74.308 30.603 114.204zM736.001 576.753c17.605-30.493 7.237-69.191-23.255-86.796s-69.191-7.237-86.796 23.255c-17.605 30.493-7.237 69.191 23.255 86.796s69.191 7.237 86.796-23.255zM513.010 725.57c-46.056 0-83.604-37.549-83.604-83.604s37.549-83.604 83.604-83.604c46.056 0 83.604 37.549 83.604 83.604s-37.549 83.604-83.604 83.604zM513.010 705.505c35.211 0 63.539-28.328 63.539-63.539s-28.328-63.539-63.539-63.539c-35.211 0-63.539 28.328-63.539 63.539s28.328 63.539 63.539 63.539zM513.010 779.077c-182.73 0-331.076-148.348-331.076-331.076 0-182.73 148.348-331.076 331.076-331.076 182.73 0 331.076 148.348 331.076 331.076 0 182.73-148.348 331.076-331.076 331.076zM513.010 759.012c171.892 0 311.011-139.125 311.011-311.011 0-171.892-139.125-311.011-311.011-311.011-171.892 0-311.011 139.125-311.011 311.011 0 171.892 139.125 311.011 311.011 311.011zM256.443 892.779l-2.927-5.017-253.742-439.762 2.927-5.017 253.742-439.762h513.128l2.927 5.017 253.742 439.762-2.927 5.017-253.742 439.762h-513.128zM267.94 872.714h490.125l244.963-424.713-244.963-424.713h-490.125l-244.963 424.713 244.963 424.713z" />
<glyph unicode="&#xe632;" glyph-name="flatfieldingalt" horiz-adv-x="1026" d="M971.426 450.492v-79.724h0.155c1.266-13.943 12.985-24.915 27.252-24.915s25.986 10.972 27.252 24.915h0.155v79.724h-54.811zM896.683 450.492v-164.433h0.155c1.266-13.943 12.985-24.915 27.252-24.915s25.986 10.972 27.252 24.915h0.155v164.433h-54.811zM821.942 450.492v-244.157h0.155c1.266-13.943 12.985-24.915 27.252-24.915s25.986 10.972 27.252 24.915h0.155v244.157h-54.811zM747.2 450.492v-279.039h0.155c1.266-13.943 12.985-24.915 27.252-24.915s25.986 10.972 27.252 24.915h0.155v279.039h-54.811zM672.457 450.492v-244.157h0.155c1.266-13.943 12.985-24.915 27.252-24.915s25.986 10.972 27.252 24.915h0.155v244.157h-54.811zM597.715 450.492v-154.467h0.155c1.266-13.943 12.985-24.915 27.252-24.915s25.986 10.972 27.252 24.915h0.155v154.467h-54.811zM522.972 450.492v-54.811h0.155c1.266-13.943 12.985-24.915 27.252-24.915s25.986 10.972 27.252 24.915h0.155v54.811h-54.811zM475.636 525.234c-14.266 0-25.986-10.972-27.252-24.915h-0.155v-54.811h54.811v54.811h-0.155c-1.266 13.943-12.985 24.915-27.252 24.915zM27.182 550.148c-14.266 0-25.986-10.972-27.252-24.915h-0.155v-79.724h54.811v79.724h-0.155c-1.266 13.943-12.985 24.915-27.252 24.915zM400.894 624.89c-14.266 0-25.986-10.972-27.252-24.915h-0.155v-154.467h54.811v154.467h-0.155c-1.266 13.943-12.985 24.915-27.252 24.915zM101.925 634.856c-14.266 0-25.986-10.972-27.252-24.915h-0.155v-164.433h54.811v164.433h-0.155c-1.266 13.943-12.985 24.915-27.252 24.915zM326.152 714.581c-14.266 0-25.986-10.972-27.252-24.915h-0.155v-244.157h54.811v244.157h-0.155c-1.266 13.943-12.985 24.915-27.252 24.915zM176.667 714.581c-14.266 0-25.986-10.972-27.252-24.915h-0.155v-244.157h54.811v244.157h-0.155c-1.266 13.943-12.985 24.915-27.252 24.915zM251.409 749.461c-14.266 0-25.986-10.972-27.252-24.915h-0.155v-279.039h54.811v279.039h-0.155c-1.266 13.943-12.985 24.915-27.252 24.915z" />
<glyph unicode="&#xe633;" glyph-name="flatfielding" horiz-adv-x="1026" d="M256.436 892.778l-2.927-5.017-253.742-439.761 2.927-5.017 253.742-439.761h513.127l2.927 5.017 253.742 439.761-2.927 5.017-253.742 439.761h-513.127zM267.933 872.713h490.124l244.963-424.712-244.963-424.712h-490.124l-244.963 424.712 244.963 424.712zM337.428 650.326c-9.574 0-17.441-7.364-18.29-16.721h-0.104v-187.276h36.787v187.276h-0.104c-0.85 9.357-8.715 16.721-18.29 16.721zM287.266 626.915c-9.574 0-17.441-7.364-18.29-16.721h-0.104v-163.866h36.787v163.866h-0.104c-0.85 9.357-8.715 16.721-18.29 16.721zM387.592 626.915c-9.574 0-17.441-7.364-18.29-16.721h-0.104v-163.866h36.787v163.866h-0.104c-0.85 9.357-8.715 16.721-18.29 16.721zM237.103 573.409c-9.574 0-17.441-7.364-18.29-16.721h-0.104v-110.359h36.787v110.359h-0.104c-0.85 9.357-8.715 16.721-18.29 16.721zM437.755 566.719c-9.574 0-17.441-7.364-18.29-16.721h-0.104v-103.67h36.787v103.67h-0.104c-0.85 9.357-8.715 16.721-18.29 16.721zM186.94 516.557c-9.574 0-17.441-7.364-18.29-16.721h-0.104v-53.507h36.787v53.507h-0.104c-0.85 9.357-8.715 16.721-18.29 16.721zM487.919 499.836c-9.574 0-17.441-7.364-18.29-16.721h-0.104v-36.787h36.787v36.787h-0.104c-0.85 9.357-8.715 16.721-18.29 16.721zM519.689 449.674v-36.787h0.104c0.85-9.357 8.715-16.721 18.29-16.721s17.441 7.364 18.29 16.721h0.104v36.787h-36.787zM569.852 449.674v-103.67h0.104c0.85-9.357 8.715-16.721 18.29-16.721s17.441 7.364 18.29 16.721h0.104v103.67h-36.787zM620.015 449.674v-163.866h0.104c0.85-9.357 8.715-16.721 18.29-16.721s17.441 7.364 18.29 16.721h0.104v163.866h-36.787zM670.178 449.674v-187.276h0.104c0.85-9.357 8.715-16.721 18.29-16.721s17.441 7.364 18.29 16.721h0.104v187.276h-36.787zM720.341 449.674v-163.866h0.104c0.85-9.357 8.715-16.721 18.29-16.721s17.441 7.364 18.29 16.721h0.104v163.866h-36.787zM770.504 449.674v-110.359h0.104c0.85-9.357 8.715-16.721 18.29-16.721s17.441 7.364 18.29 16.721h0.104v110.359h-36.787zM820.667 449.674v-53.507h0.104c0.85-9.357 8.715-16.721 18.29-16.721s17.441 7.364 18.29 16.721h0.104v53.507h-36.787z" />
<glyph unicode="&#xe634;" glyph-name="focusingalt" horiz-adv-x="1026" d="M512.979 960c-71.659 0-129.963-58.314-129.963-129.963 0-71.659 58.314-129.963 129.963-129.963 71.659 0 129.963 58.314 129.963 129.963 0 71.659-58.314 129.963-129.963 129.963zM512.979 669.546c-37.886 0-68.734-30.846-68.734-68.734s30.846-68.734 68.734-68.734c37.886 0 68.734 30.846 68.734 68.734s-30.846 68.734-68.734 68.734zM512.979 486.201c-21.007 0-38.203-17.196-38.203-38.203s17.196-38.203 38.203-38.203c21.007 0 38.203 17.196 38.203 38.203s-17.196 38.203-38.203 38.203zM512.979 363.918c-37.886 0-68.734-30.846-68.734-68.734s30.846-68.734 68.734-68.734c37.886 0 68.734 30.846 68.734 68.734s-30.846 68.734-68.734 68.734zM512.979 195.926c-71.659 0-129.963-58.314-129.963-129.963 0-71.659 58.314-129.963 129.963-129.963 71.659 0 129.963 58.314 129.963 129.963 0 71.659-58.314 129.963-129.963 129.963zM749.896 536.701l-11.084-5.457-166.458-83.228 177.542-88.687v177.373zM276.119 536.701v-177.373l11.084 5.457 166.458 83.228-177.542 88.687z" />
<glyph unicode="&#xe635;" glyph-name="focusing" horiz-adv-x="1026" d="M364.527 505.685v-108.686l6.791 3.344 101.998 50.999-108.79 54.344zM654.837 505.685l-6.791-3.344-101.998-50.999 108.79-54.344v108.686zM509.665 296.872c-43.909 0-79.636-35.733-79.636-79.636 0-43.909 35.733-79.636 79.636-79.636 43.909 0 79.636 35.733 79.636 79.636 0 43.909-35.733 79.636-79.636 79.636zM509.665 399.81c-23.215 0-42.117-18.901-42.117-42.117s18.901-42.117 42.117-42.117c23.215 0 42.117 18.901 42.117 42.117s-18.901 42.117-42.117 42.117zM509.665 474.74c-12.872 0-23.409-10.537-23.409-23.409s10.537-23.409 23.409-23.409c12.872 0 23.409 10.537 23.409 23.409s-10.537 23.409-23.409 23.409zM509.665 587.086c-23.215 0-42.117-18.901-42.117-42.117s18.901-42.117 42.117-42.117c23.215 0 42.117 18.901 42.117 42.117s-18.901 42.117-42.117 42.117zM509.665 765.064c-43.909 0-79.636-35.733-79.636-79.636 0-43.909 35.733-79.636 79.636-79.636 43.909 0 79.636 35.733 79.636 79.636 0 43.909-35.733 79.636-79.636 79.636zM256.443 892.779l-2.927-5.017-253.742-439.762 2.927-5.017 253.742-439.762h513.128l2.927 5.017 253.742 439.762-2.927 5.017-253.742 439.762h-513.128zM267.94 872.714h490.125l244.963-424.713-244.963-424.713h-490.125l-244.963 424.713 244.963 424.713z" />
<glyph unicode="&#xe636;" glyph-name="modular" horiz-adv-x="992" d="M760.837 864.104l-5.059-8.828-225.84-391.094 462.062-0.182-5.15 8.828-226.014 391.271zM760.837 840.648l210.863-364.876-421.432 0.090 210.569 364.788zM716.976 880.376l-451.854-0.090 5.15-8.828 225.75-391.094 5.059 8.828 226.104 391.179h-10.209zM706.858 868.691l-210.863-364.876-210.569 364.788 421.432 0.090zM231.167 864.371l-5.059-8.828-225.84-391.359h461.798l-5.15 8.828-225.75 391.359zM231.167 840.922l210.569-364.964h-421.138l210.569 364.964zM0 431.997l5.15-8.828 226.014-391.271 5.059 8.828 225.84 391.094-462.062 0.182zM20.321 420.232l421.432-0.090-210.569-364.788-210.863 364.876zM496.013 415.63l-5.059-8.828-226.104-391.179 462.062 0.090-5.15 8.828-225.75 391.094zM496.013 392.187l210.569-364.788-421.432-0.090 210.863 364.876zM529.945 431.817l5.15-8.828 225.75-391.359 5.059 8.828 225.84 391.359h-461.798zM550.265 420.047h421.138l-210.569-364.964-210.569 364.964z" />
<glyph unicode="&#xe637;" glyph-name="observingalt" horiz-adv-x="1026" d="M247.416 420.321l-72.141-80.159c5.955-3.503 11.213-8.003 15.36-13.599l72.141 80.159c-5.955 3.503-11.213 8.003-15.36 13.599zM363.414 474.24l-27.203-4.803c1.224-3.113 2.12-6.503 2.718-9.923 0.609-3.467 0.896-6.846 0.798-10.241l27.362 4.962c-1.224 3.113-2.279 6.344-2.883 9.759-0.605 3.41-0.887 6.897-0.798 10.241zM608.048 497.115c-3.072-6.165-7.235-11.817-12.483-16.323l29.598-23.199c3.098 6.227 7.332 11.792 12.642 16.323l-29.763 23.199zM511.403 514.395l-52.163-16.482c2.775-4.905 4.731-10.343 5.76-16.158 0.2-1.142 0.359-2.228 0.482-3.359l52.163 16.482c-2.718 4.854-4.742 10.235-5.76 16.001-0.21 1.193-0.359 2.334-0.482 3.522zM808.517 549.759l-103.527-76.8c5.090-4.551 9.195-10.133 12.161-16.482l103.527 76.8c-5.090 4.551-9.195 10.133-12.161 16.482zM823.079 669.44c-5.489-3.881-11.792-6.687-18.719-8.162l20.961-48.159c5.468 3.881 11.822 6.666 18.719 8.162l-20.961 48.159zM748.516 687.201l-154.215-127.518c5.376-4.296 9.963-9.651 13.281-15.842l154.061 127.683c-5.319 4.275-9.831 9.539-13.122 15.683zM479.567 917.76l33.438-60.161 33.438 60.161c233.738-16.328 419.994-202.583 436.326-436.326l-60.161-33.438 60.161-33.438c-16.328-233.738-202.583-419.994-436.326-436.326l-33.438 60.161-33.438-60.161c-233.738 16.328-419.994 202.583-436.326 436.326l60.161 33.438-60.161 33.438c16.328 233.738 202.583 419.994 436.326 436.326zM513.007 960c-282.522 0-512-229.473-512-512 0-282.522 229.473-512 512-512 282.522 0 512 229.473 512 512 0 282.522-229.473 512-512 512zM557.008 550.041c16.83 2.97 32.619-8.090 35.589-24.92s-8.090-32.619-24.92-35.589c-16.83-2.97-32.619 8.090-35.589 24.92s8.090 32.619 24.92 35.589zM665.552 465.203c16.83 2.97 32.619-8.090 35.589-24.92s-8.090-32.619-24.92-35.589c-16.83-2.97-32.619 8.090-35.589 24.92s8.090 32.619 24.92 35.589zM849.457 601.61c16.83 2.97 32.619-8.090 35.589-24.92s-8.090-32.619-24.92-35.589c-16.83-2.97-32.619 8.090-35.589 24.92s8.090 32.619 24.92 35.589zM788.38 741.611c16.83 2.97 32.619-8.090 35.589-24.92s-8.090-32.619-24.92-35.589c-16.83-2.97-32.619 8.090-35.589 24.92s8.090 32.619 24.92 35.589zM409.295 503.204c16.83 2.97 32.619-8.090 35.589-24.92s-8.090-32.619-24.92-35.589c-16.83-2.97-32.619 8.090-35.589 24.92s8.090 32.619 24.92 35.589zM283.241 480.978c16.83 2.97 32.619-8.090 35.589-24.92s-8.090-32.619-24.92-35.589c-16.83-2.97-32.619 8.090-35.589 24.92s8.090 32.619 24.92 35.589zM144.131 326.455c16.83 2.97 32.619-8.090 35.589-24.92s-8.090-32.619-24.92-35.589c-16.83-2.97-32.619 8.090-35.589 24.92s8.090 32.619 24.92 35.589z" />
<glyph unicode="&#xe638;" glyph-name="pdualt" horiz-adv-x="1026" d="M945.841 315.062c28.994 0 52.559-23.565 52.559-52.559s-23.565-52.559-52.559-52.559c-28.994 0-52.559 23.565-52.559 52.559s23.565 52.559 52.559 52.559zM822.172 315.062c28.994 0 52.559-23.565 52.559-52.559s-23.565-52.559-52.559-52.559c-28.994 0-52.559 23.565-52.559 52.559s23.565 52.559 52.559 52.559zM698.504 315.062c28.994 0 52.559-23.565 52.559-52.559s-23.565-52.559-52.559-52.559c-28.994 0-52.559 23.565-52.559 52.559s23.565 52.559 52.559 52.559zM574.834 315.062c28.994 0 52.559-23.565 52.559-52.559s-23.565-52.559-52.559-52.559c-28.994 0-52.559 23.565-52.559 52.559s23.565 52.559 52.559 52.559zM451.165 315.062c28.994 0 52.559-23.565 52.559-52.559s-23.565-52.559-52.559-52.559c-28.994 0-52.559 23.565-52.559 52.559s23.565 52.559 52.559 52.559zM327.498 315.062c28.994 0 52.559-23.565 52.559-52.559s-23.565-52.559-52.559-52.559c-28.994 0-52.559 23.565-52.559 52.559s23.565 52.559 52.559 52.559zM203.828 315.062c28.994 0 52.559-23.565 52.559-52.559s-23.565-52.559-52.559-52.559c-28.994 0-52.559 23.565-52.559 52.559s23.565 52.559 52.559 52.559zM80.159 315.062c28.989 0 52.559-23.565 52.559-52.559s-23.572-52.559-52.559-52.559c-28.989 0-52.559 23.565-52.559 52.559s23.572 52.559 52.559 52.559zM80.159 342.888c-21.277 0-41.764-8.527-56.814-23.577-15.045-15.045-23.577-35.53-23.577-56.814 0-21.277 8.527-41.764 23.577-56.814 15.045-15.045 35.53-23.577 56.814-23.577h865.682c21.277 0 41.764 8.527 56.814 23.577 15.045 15.045 23.577 35.53 23.577 56.814 0 21.277-8.527 41.764-23.577 56.814-15.045 15.045-35.53 23.577-56.814 23.577h-865.682zM945.841 500.565c28.994 0 52.559-23.565 52.559-52.559s-23.565-52.559-52.559-52.559c-28.994 0-52.559 23.565-52.559 52.559s23.565 52.559 52.559 52.559zM822.172 500.565c28.994 0 52.559-23.565 52.559-52.559s-23.565-52.559-52.559-52.559c-28.994 0-52.559 23.565-52.559 52.559s23.565 52.559 52.559 52.559zM698.504 500.565c28.994 0 52.559-23.565 52.559-52.559s-23.565-52.559-52.559-52.559c-28.994 0-52.559 23.565-52.559 52.559s23.565 52.559 52.559 52.559zM574.834 500.565c28.994 0 52.559-23.565 52.559-52.559s-23.565-52.559-52.559-52.559c-28.994 0-52.559 23.565-52.559 52.559s23.565 52.559 52.559 52.559zM327.498 500.565c28.994 0 52.559-23.565 52.559-52.559s-23.565-52.559-52.559-52.559c-28.994 0-52.559 23.565-52.559 52.559s23.565 52.559 52.559 52.559zM80.159 500.565c28.989 0 52.559-23.565 52.559-52.559s-23.572-52.559-52.559-52.559c-28.989 0-52.559 23.565-52.559 52.559s23.572 52.559 52.559 52.559zM80.159 528.391c-21.277 0-41.764-8.527-56.814-23.577-15.045-15.045-23.577-35.53-23.577-56.814 0-21.277 8.527-41.764 23.577-56.814 15.045-15.045 35.53-23.577 56.814-23.577h865.682c21.277 0 41.764 8.527 56.814 23.577 15.045 15.045 23.577 35.53 23.577 56.814 0 21.277-8.527 41.764-23.577 56.814-15.045 15.045-35.53 23.577-56.814 23.577h-865.682zM945.841 686.068c28.994 0 52.559-23.565 52.559-52.559s-23.565-52.559-52.559-52.559c-28.994 0-52.559 23.565-52.559 52.559s23.565 52.559 52.559 52.559zM698.504 686.068c28.994 0 52.559-23.565 52.559-52.559s-23.565-52.559-52.559-52.559c-28.994 0-52.559 23.565-52.559 52.559s23.565 52.559 52.559 52.559zM451.165 686.068c28.994 0 52.559-23.565 52.559-52.559s-23.565-52.559-52.559-52.559c-28.994 0-52.559 23.565-52.559 52.559s23.565 52.559 52.559 52.559zM327.498 686.068c28.994 0 52.559-23.565 52.559-52.559s-23.565-52.559-52.559-52.559c-28.994 0-52.559 23.565-52.559 52.559s23.565 52.559 52.559 52.559zM203.828 686.068c28.994 0 52.559-23.565 52.559-52.559s-23.565-52.559-52.559-52.559c-28.994 0-52.559 23.565-52.559 52.559s23.565 52.559 52.559 52.559zM80.159 686.068c28.989 0 52.559-23.565 52.559-52.559s-23.572-52.559-52.559-52.559c-28.989 0-52.559 23.565-52.559 52.559s23.572 52.559 52.559 52.559zM80.159 713.894c-21.277 0-41.764-8.527-56.814-23.577-15.045-15.045-23.577-35.53-23.577-56.814 0-21.277 8.527-41.764 23.577-56.814 15.045-15.045 35.53-23.577 56.814-23.577h865.682c21.277 0 41.764 8.527 56.814 23.577 15.045 15.045 23.577 35.53 23.577 56.814 0 21.277-8.527 41.764-23.577 56.814-15.045 15.045-35.53 23.577-56.814 23.577h-865.682z" />
</font>
</defs>
</svg>
